<svg width="1920" height="38" viewBox="0 0 1920 38" fill="none" xmlns="http://www.w3.org/2000/svg">
<rect width="1920" height="38" transform="matrix(1 0 0 -1 0 38)" fill="#5A4039"/>
<path d="M21.1445 17.373L19.272 24H17.7295L15.2729 14.8403H16.9741L18.561 21.7783H18.6118L20.4526 14.8403H21.8999L23.7407 21.7783H23.7915L25.3784 14.8403H27.0796L24.623 24H23.0806L21.208 17.373H21.1445ZM33.2939 24L32.5132 21.6323H29.1426L28.3618 24H26.6733L29.9233 14.8403H31.7705L35.0205 24H33.2939ZM30.8057 16.459L29.5234 20.3691H32.126L30.8501 16.459H30.8057ZM37.6421 16.167V19.2964H39.4893C40.0098 19.2964 40.4139 19.1589 40.7017 18.8838C40.9894 18.6087 41.1333 18.2236 41.1333 17.7285C41.1333 17.2461 40.9831 16.8652 40.6826 16.5859C40.3822 16.3066 39.9738 16.167 39.4575 16.167H37.6421ZM37.6421 20.5532V24H36.0044V14.8403H39.6416C40.6276 14.8403 41.402 15.0964 41.9648 15.6084C42.5277 16.1162 42.8091 16.8102 42.8091 17.6904C42.8091 18.304 42.6567 18.8457 42.3521 19.3154C42.0474 19.7809 41.6242 20.111 41.0825 20.3057L43.082 24H41.2158L39.4131 20.5532H37.6421ZM45.71 24H44.1294V14.8403H45.5513L50.0962 21.2578H50.1533V14.8403H51.7275V24H50.3184L45.7671 17.5762H45.71V24ZM54.9839 24H53.3462V14.8403H54.9839V24ZM58.1768 24H56.5962V14.8403H58.0181L62.563 21.2578H62.6201V14.8403H64.1943V24H62.7852L58.2339 17.5762H58.1768V24ZM73.8301 20.1787C73.8301 21.4229 73.4767 22.3962 72.77 23.0986C72.0675 23.8011 71.09 24.1523 69.8374 24.1523C68.5002 24.1523 67.4422 23.7271 66.6636 22.8765C65.8892 22.0216 65.502 20.8579 65.502 19.3853C65.502 17.9338 65.887 16.7891 66.6572 15.9512C67.4316 15.109 68.4811 14.688 69.8057 14.688C70.8467 14.688 71.729 14.9694 72.4526 15.5322C73.1763 16.0951 73.6121 16.8356 73.7603 17.7539H72.0972C71.9406 17.2292 71.6613 16.8187 71.2593 16.5225C70.8573 16.2262 70.3748 16.0781 69.812 16.0781C68.9868 16.0781 68.3415 16.368 67.876 16.9478C67.4105 17.5275 67.1777 18.3337 67.1777 19.3662C67.1777 20.4199 67.4168 21.2493 67.895 21.8545C68.3774 22.4596 69.0312 22.7622 69.8564 22.7622C70.5462 22.7622 71.109 22.5633 71.5449 22.1655C71.985 21.7677 72.2114 21.2472 72.2241 20.604L72.2305 20.4517H70.0215V19.2012H73.8301V20.1787ZM76.1406 24.0698C75.8825 24.0698 75.6646 23.9831 75.4868 23.8096C75.3133 23.6318 75.2266 23.4139 75.2266 23.1558C75.2266 22.9019 75.3133 22.686 75.4868 22.5083C75.6646 22.3306 75.8825 22.2417 76.1406 22.2417C76.3945 22.2417 76.6082 22.3306 76.7817 22.5083C76.9595 22.686 77.0483 22.9019 77.0483 23.1558C77.0483 23.4139 76.9595 23.6318 76.7817 23.8096C76.6082 23.9831 76.3945 24.0698 76.1406 24.0698ZM76.1406 19.4868C75.8825 19.4868 75.6646 19.3979 75.4868 19.2202C75.3133 19.0425 75.2266 18.8267 75.2266 18.5728C75.2266 18.3188 75.3133 18.103 75.4868 17.9253C75.6646 17.7476 75.8825 17.6587 76.1406 17.6587C76.3945 17.6587 76.6082 17.7476 76.7817 17.9253C76.9595 18.103 77.0483 18.3188 77.0483 18.5728C77.0483 18.8267 76.9595 19.0425 76.7817 19.2202C76.6082 19.3979 76.3945 19.4868 76.1406 19.4868ZM85.1733 24H83.542V16.2241H80.7998V14.8403H87.9092V16.2241H85.1733V24ZM96.7578 24H95.1265V20.0264H90.6704V24H89.0327V14.8403H90.6704V18.6489H95.1265V14.8403H96.7578V24ZM100.014 24H98.3765V14.8403H100.014V24ZM101.252 21.4229H102.839C102.89 21.8418 103.105 22.1803 103.486 22.4385C103.867 22.6924 104.339 22.8193 104.902 22.8193C105.452 22.8193 105.901 22.6966 106.248 22.4512C106.599 22.2057 106.774 21.8926 106.774 21.5117C106.774 21.1816 106.647 20.915 106.394 20.7119C106.14 20.5046 105.725 20.3332 105.149 20.1978L103.962 19.9185C103.12 19.7238 102.494 19.4212 102.083 19.0107C101.677 18.6003 101.474 18.0671 101.474 17.4111C101.474 16.6029 101.792 15.9469 102.426 15.4434C103.061 14.9398 103.88 14.688 104.883 14.688C105.89 14.688 106.7 14.9377 107.314 15.437C107.932 15.9321 108.251 16.5838 108.272 17.3921H106.711C106.673 16.9647 106.489 16.6304 106.159 16.3892C105.829 16.1437 105.399 16.021 104.87 16.021C104.354 16.021 103.935 16.1374 103.613 16.3701C103.296 16.6029 103.137 16.9097 103.137 17.2905C103.137 17.5952 103.26 17.8428 103.505 18.0332C103.755 18.2236 104.161 18.3866 104.724 18.522L105.778 18.7632C106.705 18.9748 107.377 19.2837 107.796 19.6899C108.215 20.0962 108.425 20.64 108.425 21.3213C108.425 22.1888 108.099 22.8786 107.447 23.3906C106.8 23.8984 105.922 24.1523 104.813 24.1523C103.755 24.1523 102.904 23.909 102.261 23.4224C101.622 22.9315 101.286 22.265 101.252 21.4229ZM113.903 24H112.265V14.8403H113.903V24ZM115.141 21.4229H116.728C116.778 21.8418 116.994 22.1803 117.375 22.4385C117.756 22.6924 118.228 22.8193 118.791 22.8193C119.341 22.8193 119.789 22.6966 120.136 22.4512C120.487 22.2057 120.663 21.8926 120.663 21.5117C120.663 21.1816 120.536 20.915 120.282 20.7119C120.028 20.5046 119.614 20.3332 119.038 20.1978L117.851 19.9185C117.009 19.7238 116.383 19.4212 115.972 19.0107C115.566 18.6003 115.363 18.0671 115.363 17.4111C115.363 16.6029 115.68 15.9469 116.315 15.4434C116.95 14.9398 117.769 14.688 118.771 14.688C119.779 14.688 120.589 14.9377 121.203 15.437C121.82 15.9321 122.14 16.5838 122.161 17.3921H120.6C120.562 16.9647 120.377 16.6304 120.047 16.3892C119.717 16.1437 119.288 16.021 118.759 16.021C118.243 16.021 117.824 16.1374 117.502 16.3701C117.185 16.6029 117.026 16.9097 117.026 17.2905C117.026 17.5952 117.149 17.8428 117.394 18.0332C117.644 18.2236 118.05 18.3866 118.613 18.522L119.667 18.7632C120.593 18.9748 121.266 19.2837 121.685 19.6899C122.104 20.0962 122.313 20.64 122.313 21.3213C122.313 22.1888 121.988 22.8786 121.336 23.3906C120.688 23.8984 119.81 24.1523 118.702 24.1523C117.644 24.1523 116.793 23.909 116.15 23.4224C115.511 22.9315 115.174 22.265 115.141 21.4229ZM127.734 24H126.154V14.8403H127.576L132.121 21.2578H132.178V14.8403H133.752V24H132.343L127.792 17.5762H127.734V24ZM139.408 14.688C140.741 14.688 141.797 15.1133 142.575 15.9639C143.358 16.8145 143.75 17.9676 143.75 19.4233C143.75 20.8791 143.358 22.0322 142.575 22.8828C141.797 23.7292 140.741 24.1523 139.408 24.1523C138.07 24.1523 137.01 23.7292 136.228 22.8828C135.449 22.0322 135.06 20.8791 135.06 19.4233C135.06 17.9676 135.449 16.8145 136.228 15.9639C137.01 15.1133 138.07 14.688 139.408 14.688ZM141.356 16.9922C140.874 16.387 140.224 16.0845 139.408 16.0845C138.591 16.0845 137.941 16.3849 137.459 16.9858C136.977 17.5868 136.735 18.3993 136.735 19.4233C136.735 20.4432 136.977 21.2536 137.459 21.8545C137.941 22.4554 138.591 22.7559 139.408 22.7559C140.224 22.7559 140.874 22.4554 141.356 21.8545C141.839 21.2536 142.08 20.4432 142.08 19.4233C142.08 18.4035 141.839 17.5931 141.356 16.9922ZM148.396 24H146.765V16.2241H144.022V14.8403H151.132V16.2241H148.396V24ZM160.844 24L160.063 21.6323H156.692L155.912 24H154.223L157.473 14.8403H159.32L162.57 24H160.844ZM158.355 16.459L157.073 20.3691H159.676L158.4 16.459H158.355ZM175.608 24H174.136V17.5H174.091L171.444 23.9238H170.327L167.68 17.5H167.636V24H166.157V14.8403H168.055L170.86 21.7529H170.911L173.717 14.8403H175.608V24ZM183.156 22.6162V24H177.227V14.8403H183.156V16.2241H178.865V18.6997H182.921V20.001H178.865V22.6162H183.156ZM194.029 24H192.557V17.5H192.512L189.865 23.9238H188.748L186.101 17.5H186.057V24H184.578V14.8403H186.476L189.281 21.7529H189.332L192.138 14.8403H194.029V24ZM201.577 22.6162V24H195.648V14.8403H201.577V16.2241H197.286V18.6997H201.342V20.001H197.286V22.6162H201.577ZM209.549 24.1523C208.237 24.1523 207.199 23.7292 206.433 22.8828C205.671 22.0365 205.29 20.8812 205.29 19.417C205.29 17.9613 205.673 16.8102 206.439 15.9639C207.209 15.1133 208.246 14.688 209.549 14.688C210.616 14.688 211.515 14.9927 212.247 15.6021C212.979 16.2072 213.396 17.0007 213.498 17.9824H211.885C211.779 17.4069 211.511 16.9456 211.079 16.5986C210.652 16.2516 210.142 16.0781 209.549 16.0781C208.762 16.0781 208.134 16.3807 207.664 16.9858C207.199 17.5868 206.966 18.3971 206.966 19.417C206.966 20.4453 207.199 21.2599 207.664 21.8608C208.13 22.4618 208.76 22.7622 209.556 22.7622C210.161 22.7622 210.669 22.6077 211.079 22.2988C211.494 21.9857 211.765 21.554 211.892 21.0039H213.498C213.354 21.9857 212.931 22.7559 212.228 23.3145C211.526 23.873 210.633 24.1523 209.549 24.1523ZM218.779 14.688C220.112 14.688 221.168 15.1133 221.946 15.9639C222.729 16.8145 223.121 17.9676 223.121 19.4233C223.121 20.8791 222.729 22.0322 221.946 22.8828C221.168 23.7292 220.112 24.1523 218.779 24.1523C217.442 24.1523 216.382 23.7292 215.599 22.8828C214.82 22.0322 214.431 20.8791 214.431 19.4233C214.431 17.9676 214.82 16.8145 215.599 15.9639C216.382 15.1133 217.442 14.688 218.779 14.688ZM220.728 16.9922C220.245 16.387 219.596 16.0845 218.779 16.0845C217.962 16.0845 217.312 16.3849 216.83 16.9858C216.348 17.5868 216.106 18.3993 216.106 19.4233C216.106 20.4432 216.348 21.2536 216.83 21.8545C217.312 22.4554 217.962 22.7559 218.779 22.7559C219.596 22.7559 220.245 22.4554 220.728 21.8545C221.21 21.2536 221.451 20.4432 221.451 19.4233C221.451 18.4035 221.21 17.5931 220.728 16.9922ZM226.066 24H224.428V14.8403H226.066V24ZM229.259 24H227.678V14.8403H229.1L233.645 21.2578H233.702V14.8403H235.276V24H233.867L229.316 17.5762H229.259V24Z" fill="#FFF500" fill-opacity="0.6"/>
<path d="M495.145 17.373L493.272 24H491.729L489.273 14.8403H490.974L492.561 21.7783H492.612L494.453 14.8403H495.9L497.741 21.7783H497.792L499.378 14.8403H501.08L498.623 24H497.081L495.208 17.373H495.145ZM507.294 24L506.513 21.6323H503.143L502.362 24H500.673L503.923 14.8403H505.771L509.021 24H507.294ZM504.806 16.459L503.523 20.3691H506.126L504.85 16.459H504.806ZM511.642 16.167V19.2964H513.489C514.01 19.2964 514.414 19.1589 514.702 18.8838C514.989 18.6087 515.133 18.2236 515.133 17.7285C515.133 17.2461 514.983 16.8652 514.683 16.5859C514.382 16.3066 513.974 16.167 513.458 16.167H511.642ZM511.642 20.5532V24H510.004V14.8403H513.642C514.628 14.8403 515.402 15.0964 515.965 15.6084C516.528 16.1162 516.809 16.8102 516.809 17.6904C516.809 18.304 516.657 18.8457 516.352 19.3154C516.047 19.7809 515.624 20.111 515.083 20.3057L517.082 24H515.216L513.413 20.5532H511.642ZM519.71 24H518.129V14.8403H519.551L524.096 21.2578H524.153V14.8403H525.728V24H524.318L519.767 17.5762H519.71V24ZM528.984 24H527.346V14.8403H528.984V24ZM532.177 24H530.596V14.8403H532.018L536.563 21.2578H536.62V14.8403H538.194V24H536.785L532.234 17.5762H532.177V24ZM547.83 20.1787C547.83 21.4229 547.477 22.3962 546.77 23.0986C546.068 23.8011 545.09 24.1523 543.837 24.1523C542.5 24.1523 541.442 23.7271 540.664 22.8765C539.889 22.0216 539.502 20.8579 539.502 19.3853C539.502 17.9338 539.887 16.7891 540.657 15.9512C541.432 15.109 542.481 14.688 543.806 14.688C544.847 14.688 545.729 14.9694 546.453 15.5322C547.176 16.0951 547.612 16.8356 547.76 17.7539H546.097C545.941 17.2292 545.661 16.8187 545.259 16.5225C544.857 16.2262 544.375 16.0781 543.812 16.0781C542.987 16.0781 542.341 16.368 541.876 16.9478C541.41 17.5275 541.178 18.3337 541.178 19.3662C541.178 20.4199 541.417 21.2493 541.895 21.8545C542.377 22.4596 543.031 22.7622 543.856 22.7622C544.546 22.7622 545.109 22.5633 545.545 22.1655C545.985 21.7677 546.211 21.2472 546.224 20.604L546.23 20.4517H544.021V19.2012H547.83V20.1787ZM550.141 24.0698C549.882 24.0698 549.665 23.9831 549.487 23.8096C549.313 23.6318 549.227 23.4139 549.227 23.1558C549.227 22.9019 549.313 22.686 549.487 22.5083C549.665 22.3306 549.882 22.2417 550.141 22.2417C550.395 22.2417 550.608 22.3306 550.782 22.5083C550.959 22.686 551.048 22.9019 551.048 23.1558C551.048 23.4139 550.959 23.6318 550.782 23.8096C550.608 23.9831 550.395 24.0698 550.141 24.0698ZM550.141 19.4868C549.882 19.4868 549.665 19.3979 549.487 19.2202C549.313 19.0425 549.227 18.8267 549.227 18.5728C549.227 18.3188 549.313 18.103 549.487 17.9253C549.665 17.7476 549.882 17.6587 550.141 17.6587C550.395 17.6587 550.608 17.7476 550.782 17.9253C550.959 18.103 551.048 18.3188 551.048 18.5728C551.048 18.8267 550.959 19.0425 550.782 19.2202C550.608 19.3979 550.395 19.4868 550.141 19.4868ZM559.173 24H557.542V16.2241H554.8V14.8403H561.909V16.2241H559.173V24ZM570.758 24H569.126V20.0264H564.67V24H563.033V14.8403H564.67V18.6489H569.126V14.8403H570.758V24ZM574.014 24H572.376V14.8403H574.014V24ZM575.252 21.4229H576.839C576.89 21.8418 577.105 22.1803 577.486 22.4385C577.867 22.6924 578.339 22.8193 578.902 22.8193C579.452 22.8193 579.901 22.6966 580.248 22.4512C580.599 22.2057 580.774 21.8926 580.774 21.5117C580.774 21.1816 580.647 20.915 580.394 20.7119C580.14 20.5046 579.725 20.3332 579.149 20.1978L577.962 19.9185C577.12 19.7238 576.494 19.4212 576.083 19.0107C575.677 18.6003 575.474 18.0671 575.474 17.4111C575.474 16.6029 575.792 15.9469 576.426 15.4434C577.061 14.9398 577.88 14.688 578.883 14.688C579.89 14.688 580.7 14.9377 581.314 15.437C581.932 15.9321 582.251 16.5838 582.272 17.3921H580.711C580.673 16.9647 580.489 16.6304 580.159 16.3892C579.829 16.1437 579.399 16.021 578.87 16.021C578.354 16.021 577.935 16.1374 577.613 16.3701C577.296 16.6029 577.137 16.9097 577.137 17.2905C577.137 17.5952 577.26 17.8428 577.505 18.0332C577.755 18.2236 578.161 18.3866 578.724 18.522L579.778 18.7632C580.705 18.9748 581.377 19.2837 581.796 19.6899C582.215 20.0962 582.425 20.64 582.425 21.3213C582.425 22.1888 582.099 22.8786 581.447 23.3906C580.8 23.8984 579.922 24.1523 578.813 24.1523C577.755 24.1523 576.904 23.909 576.261 23.4224C575.622 22.9315 575.286 22.265 575.252 21.4229ZM587.903 24H586.265V14.8403H587.903V24ZM589.141 21.4229H590.728C590.778 21.8418 590.994 22.1803 591.375 22.4385C591.756 22.6924 592.228 22.8193 592.791 22.8193C593.341 22.8193 593.789 22.6966 594.136 22.4512C594.487 22.2057 594.663 21.8926 594.663 21.5117C594.663 21.1816 594.536 20.915 594.282 20.7119C594.028 20.5046 593.614 20.3332 593.038 20.1978L591.851 19.9185C591.009 19.7238 590.383 19.4212 589.972 19.0107C589.566 18.6003 589.363 18.0671 589.363 17.4111C589.363 16.6029 589.68 15.9469 590.315 15.4434C590.95 14.9398 591.769 14.688 592.771 14.688C593.779 14.688 594.589 14.9377 595.203 15.437C595.82 15.9321 596.14 16.5838 596.161 17.3921H594.6C594.562 16.9647 594.377 16.6304 594.047 16.3892C593.717 16.1437 593.288 16.021 592.759 16.021C592.243 16.021 591.824 16.1374 591.502 16.3701C591.185 16.6029 591.026 16.9097 591.026 17.2905C591.026 17.5952 591.149 17.8428 591.394 18.0332C591.644 18.2236 592.05 18.3866 592.613 18.522L593.667 18.7632C594.593 18.9748 595.266 19.2837 595.685 19.6899C596.104 20.0962 596.313 20.64 596.313 21.3213C596.313 22.1888 595.988 22.8786 595.336 23.3906C594.688 23.8984 593.81 24.1523 592.702 24.1523C591.644 24.1523 590.793 23.909 590.15 23.4224C589.511 22.9315 589.174 22.265 589.141 21.4229ZM601.734 24H600.154V14.8403H601.576L606.121 21.2578H606.178V14.8403H607.752V24H606.343L601.792 17.5762H601.734V24ZM613.408 14.688C614.741 14.688 615.797 15.1133 616.575 15.9639C617.358 16.8145 617.75 17.9676 617.75 19.4233C617.75 20.8791 617.358 22.0322 616.575 22.8828C615.797 23.7292 614.741 24.1523 613.408 24.1523C612.07 24.1523 611.01 23.7292 610.228 22.8828C609.449 22.0322 609.06 20.8791 609.06 19.4233C609.06 17.9676 609.449 16.8145 610.228 15.9639C611.01 15.1133 612.07 14.688 613.408 14.688ZM615.356 16.9922C614.874 16.387 614.224 16.0845 613.408 16.0845C612.591 16.0845 611.941 16.3849 611.459 16.9858C610.977 17.5868 610.735 18.3993 610.735 19.4233C610.735 20.4432 610.977 21.2536 611.459 21.8545C611.941 22.4554 612.591 22.7559 613.408 22.7559C614.224 22.7559 614.874 22.4554 615.356 21.8545C615.839 21.2536 616.08 20.4432 616.08 19.4233C616.08 18.4035 615.839 17.5931 615.356 16.9922ZM622.396 24H620.765V16.2241H618.022V14.8403H625.132V16.2241H622.396V24ZM634.844 24L634.063 21.6323H630.692L629.912 24H628.223L631.473 14.8403H633.32L636.57 24H634.844ZM632.355 16.459L631.073 20.3691H633.676L632.4 16.459H632.355ZM649.608 24H648.136V17.5H648.091L645.444 23.9238H644.327L641.68 17.5H641.636V24H640.157V14.8403H642.055L644.86 21.7529H644.911L647.717 14.8403H649.608V24ZM657.156 22.6162V24H651.227V14.8403H657.156V16.2241H652.865V18.6997H656.921V20.001H652.865V22.6162H657.156ZM668.029 24H666.557V17.5H666.512L663.865 23.9238H662.748L660.101 17.5H660.057V24H658.578V14.8403H660.476L663.281 21.7529H663.332L666.138 14.8403H668.029V24ZM675.577 22.6162V24H669.648V14.8403H675.577V16.2241H671.286V18.6997H675.342V20.001H671.286V22.6162H675.577ZM683.549 24.1523C682.237 24.1523 681.199 23.7292 680.433 22.8828C679.671 22.0365 679.29 20.8812 679.29 19.417C679.29 17.9613 679.673 16.8102 680.439 15.9639C681.209 15.1133 682.246 14.688 683.549 14.688C684.616 14.688 685.515 14.9927 686.247 15.6021C686.979 16.2072 687.396 17.0007 687.498 17.9824H685.885C685.779 17.4069 685.511 16.9456 685.079 16.5986C684.652 16.2516 684.142 16.0781 683.549 16.0781C682.762 16.0781 682.134 16.3807 681.664 16.9858C681.199 17.5868 680.966 18.3971 680.966 19.417C680.966 20.4453 681.199 21.2599 681.664 21.8608C682.13 22.4618 682.76 22.7622 683.556 22.7622C684.161 22.7622 684.669 22.6077 685.079 22.2988C685.494 21.9857 685.765 21.554 685.892 21.0039H687.498C687.354 21.9857 686.931 22.7559 686.228 23.3145C685.526 23.873 684.633 24.1523 683.549 24.1523ZM692.779 14.688C694.112 14.688 695.168 15.1133 695.946 15.9639C696.729 16.8145 697.121 17.9676 697.121 19.4233C697.121 20.8791 696.729 22.0322 695.946 22.8828C695.168 23.7292 694.112 24.1523 692.779 24.1523C691.442 24.1523 690.382 23.7292 689.599 22.8828C688.82 22.0322 688.431 20.8791 688.431 19.4233C688.431 17.9676 688.82 16.8145 689.599 15.9639C690.382 15.1133 691.442 14.688 692.779 14.688ZM694.728 16.9922C694.245 16.387 693.596 16.0845 692.779 16.0845C691.962 16.0845 691.312 16.3849 690.83 16.9858C690.348 17.5868 690.106 18.3993 690.106 19.4233C690.106 20.4432 690.348 21.2536 690.83 21.8545C691.312 22.4554 691.962 22.7559 692.779 22.7559C693.596 22.7559 694.245 22.4554 694.728 21.8545C695.21 21.2536 695.451 20.4432 695.451 19.4233C695.451 18.4035 695.21 17.5931 694.728 16.9922ZM700.066 24H698.428V14.8403H700.066V24ZM703.259 24H701.678V14.8403H703.1L707.645 21.2578H707.702V14.8403H709.276V24H707.867L703.316 17.5762H703.259V24Z" fill="#FFF500" fill-opacity="0.6"/>
<path d="M258.145 17.373L256.272 24H254.729L252.273 14.8403H253.974L255.561 21.7783H255.612L257.453 14.8403H258.9L260.741 21.7783H260.792L262.378 14.8403H264.08L261.623 24H260.081L258.208 17.373H258.145ZM270.294 24L269.513 21.6323H266.143L265.362 24H263.673L266.923 14.8403H268.771L272.021 24H270.294ZM267.806 16.459L266.523 20.3691H269.126L267.85 16.459H267.806ZM274.642 16.167V19.2964H276.489C277.01 19.2964 277.414 19.1589 277.702 18.8838C277.989 18.6087 278.133 18.2236 278.133 17.7285C278.133 17.2461 277.983 16.8652 277.683 16.5859C277.382 16.3066 276.974 16.167 276.458 16.167H274.642ZM274.642 20.5532V24H273.004V14.8403H276.642C277.628 14.8403 278.402 15.0964 278.965 15.6084C279.528 16.1162 279.809 16.8102 279.809 17.6904C279.809 18.304 279.657 18.8457 279.352 19.3154C279.047 19.7809 278.624 20.111 278.083 20.3057L280.082 24H278.216L276.413 20.5532H274.642ZM282.71 24H281.129V14.8403H282.551L287.096 21.2578H287.153V14.8403H288.728V24H287.318L282.767 17.5762H282.71V24ZM291.984 24H290.346V14.8403H291.984V24ZM295.177 24H293.596V14.8403H295.018L299.563 21.2578H299.62V14.8403H301.194V24H299.785L295.234 17.5762H295.177V24ZM310.83 20.1787C310.83 21.4229 310.477 22.3962 309.77 23.0986C309.068 23.8011 308.09 24.1523 306.837 24.1523C305.5 24.1523 304.442 23.7271 303.664 22.8765C302.889 22.0216 302.502 20.8579 302.502 19.3853C302.502 17.9338 302.887 16.7891 303.657 15.9512C304.432 15.109 305.481 14.688 306.806 14.688C307.847 14.688 308.729 14.9694 309.453 15.5322C310.176 16.0951 310.612 16.8356 310.76 17.7539H309.097C308.941 17.2292 308.661 16.8187 308.259 16.5225C307.857 16.2262 307.375 16.0781 306.812 16.0781C305.987 16.0781 305.341 16.368 304.876 16.9478C304.41 17.5275 304.178 18.3337 304.178 19.3662C304.178 20.4199 304.417 21.2493 304.895 21.8545C305.377 22.4596 306.031 22.7622 306.856 22.7622C307.546 22.7622 308.109 22.5633 308.545 22.1655C308.985 21.7677 309.211 21.2472 309.224 20.604L309.23 20.4517H307.021V19.2012H310.83V20.1787ZM313.141 24.0698C312.882 24.0698 312.665 23.9831 312.487 23.8096C312.313 23.6318 312.227 23.4139 312.227 23.1558C312.227 22.9019 312.313 22.686 312.487 22.5083C312.665 22.3306 312.882 22.2417 313.141 22.2417C313.395 22.2417 313.608 22.3306 313.782 22.5083C313.959 22.686 314.048 22.9019 314.048 23.1558C314.048 23.4139 313.959 23.6318 313.782 23.8096C313.608 23.9831 313.395 24.0698 313.141 24.0698ZM313.141 19.4868C312.882 19.4868 312.665 19.3979 312.487 19.2202C312.313 19.0425 312.227 18.8267 312.227 18.5728C312.227 18.3188 312.313 18.103 312.487 17.9253C312.665 17.7476 312.882 17.6587 313.141 17.6587C313.395 17.6587 313.608 17.7476 313.782 17.9253C313.959 18.103 314.048 18.3188 314.048 18.5728C314.048 18.8267 313.959 19.0425 313.782 19.2202C313.608 19.3979 313.395 19.4868 313.141 19.4868ZM322.173 24H320.542V16.2241H317.8V14.8403H324.909V16.2241H322.173V24ZM333.758 24H332.126V20.0264H327.67V24H326.033V14.8403H327.67V18.6489H332.126V14.8403H333.758V24ZM337.014 24H335.376V14.8403H337.014V24ZM338.252 21.4229H339.839C339.89 21.8418 340.105 22.1803 340.486 22.4385C340.867 22.6924 341.339 22.8193 341.902 22.8193C342.452 22.8193 342.901 22.6966 343.248 22.4512C343.599 22.2057 343.774 21.8926 343.774 21.5117C343.774 21.1816 343.647 20.915 343.394 20.7119C343.14 20.5046 342.725 20.3332 342.149 20.1978L340.962 19.9185C340.12 19.7238 339.494 19.4212 339.083 19.0107C338.677 18.6003 338.474 18.0671 338.474 17.4111C338.474 16.6029 338.792 15.9469 339.426 15.4434C340.061 14.9398 340.88 14.688 341.883 14.688C342.89 14.688 343.7 14.9377 344.314 15.437C344.932 15.9321 345.251 16.5838 345.272 17.3921H343.711C343.673 16.9647 343.489 16.6304 343.159 16.3892C342.829 16.1437 342.399 16.021 341.87 16.021C341.354 16.021 340.935 16.1374 340.613 16.3701C340.296 16.6029 340.137 16.9097 340.137 17.2905C340.137 17.5952 340.26 17.8428 340.505 18.0332C340.755 18.2236 341.161 18.3866 341.724 18.522L342.778 18.7632C343.705 18.9748 344.377 19.2837 344.796 19.6899C345.215 20.0962 345.425 20.64 345.425 21.3213C345.425 22.1888 345.099 22.8786 344.447 23.3906C343.8 23.8984 342.922 24.1523 341.813 24.1523C340.755 24.1523 339.904 23.909 339.261 23.4224C338.622 22.9315 338.286 22.265 338.252 21.4229ZM350.903 24H349.265V14.8403H350.903V24ZM352.141 21.4229H353.728C353.778 21.8418 353.994 22.1803 354.375 22.4385C354.756 22.6924 355.228 22.8193 355.791 22.8193C356.341 22.8193 356.789 22.6966 357.136 22.4512C357.487 22.2057 357.663 21.8926 357.663 21.5117C357.663 21.1816 357.536 20.915 357.282 20.7119C357.028 20.5046 356.614 20.3332 356.038 20.1978L354.851 19.9185C354.009 19.7238 353.383 19.4212 352.972 19.0107C352.566 18.6003 352.363 18.0671 352.363 17.4111C352.363 16.6029 352.68 15.9469 353.315 15.4434C353.95 14.9398 354.769 14.688 355.771 14.688C356.779 14.688 357.589 14.9377 358.203 15.437C358.82 15.9321 359.14 16.5838 359.161 17.3921H357.6C357.562 16.9647 357.377 16.6304 357.047 16.3892C356.717 16.1437 356.288 16.021 355.759 16.021C355.243 16.021 354.824 16.1374 354.502 16.3701C354.185 16.6029 354.026 16.9097 354.026 17.2905C354.026 17.5952 354.149 17.8428 354.394 18.0332C354.644 18.2236 355.05 18.3866 355.613 18.522L356.667 18.7632C357.593 18.9748 358.266 19.2837 358.685 19.6899C359.104 20.0962 359.313 20.64 359.313 21.3213C359.313 22.1888 358.988 22.8786 358.336 23.3906C357.688 23.8984 356.81 24.1523 355.702 24.1523C354.644 24.1523 353.793 23.909 353.15 23.4224C352.511 22.9315 352.174 22.265 352.141 21.4229ZM364.734 24H363.154V14.8403H364.576L369.121 21.2578H369.178V14.8403H370.752V24H369.343L364.792 17.5762H364.734V24ZM376.408 14.688C377.741 14.688 378.797 15.1133 379.575 15.9639C380.358 16.8145 380.75 17.9676 380.75 19.4233C380.75 20.8791 380.358 22.0322 379.575 22.8828C378.797 23.7292 377.741 24.1523 376.408 24.1523C375.07 24.1523 374.01 23.7292 373.228 22.8828C372.449 22.0322 372.06 20.8791 372.06 19.4233C372.06 17.9676 372.449 16.8145 373.228 15.9639C374.01 15.1133 375.07 14.688 376.408 14.688ZM378.356 16.9922C377.874 16.387 377.224 16.0845 376.408 16.0845C375.591 16.0845 374.941 16.3849 374.459 16.9858C373.977 17.5868 373.735 18.3993 373.735 19.4233C373.735 20.4432 373.977 21.2536 374.459 21.8545C374.941 22.4554 375.591 22.7559 376.408 22.7559C377.224 22.7559 377.874 22.4554 378.356 21.8545C378.839 21.2536 379.08 20.4432 379.08 19.4233C379.08 18.4035 378.839 17.5931 378.356 16.9922ZM385.396 24H383.765V16.2241H381.022V14.8403H388.132V16.2241H385.396V24ZM397.844 24L397.063 21.6323H393.692L392.912 24H391.223L394.473 14.8403H396.32L399.57 24H397.844ZM395.355 16.459L394.073 20.3691H396.676L395.4 16.459H395.355ZM412.608 24H411.136V17.5H411.091L408.444 23.9238H407.327L404.68 17.5H404.636V24H403.157V14.8403H405.055L407.86 21.7529H407.911L410.717 14.8403H412.608V24ZM420.156 22.6162V24H414.227V14.8403H420.156V16.2241H415.865V18.6997H419.921V20.001H415.865V22.6162H420.156ZM431.029 24H429.557V17.5H429.512L426.865 23.9238H425.748L423.101 17.5H423.057V24H421.578V14.8403H423.476L426.281 21.7529H426.332L429.138 14.8403H431.029V24ZM438.577 22.6162V24H432.648V14.8403H438.577V16.2241H434.286V18.6997H438.342V20.001H434.286V22.6162H438.577ZM446.549 24.1523C445.237 24.1523 444.199 23.7292 443.433 22.8828C442.671 22.0365 442.29 20.8812 442.29 19.417C442.29 17.9613 442.673 16.8102 443.439 15.9639C444.209 15.1133 445.246 14.688 446.549 14.688C447.616 14.688 448.515 14.9927 449.247 15.6021C449.979 16.2072 450.396 17.0007 450.498 17.9824H448.885C448.779 17.4069 448.511 16.9456 448.079 16.5986C447.652 16.2516 447.142 16.0781 446.549 16.0781C445.762 16.0781 445.134 16.3807 444.664 16.9858C444.199 17.5868 443.966 18.3971 443.966 19.417C443.966 20.4453 444.199 21.2599 444.664 21.8608C445.13 22.4618 445.76 22.7622 446.556 22.7622C447.161 22.7622 447.669 22.6077 448.079 22.2988C448.494 21.9857 448.765 21.554 448.892 21.0039H450.498C450.354 21.9857 449.931 22.7559 449.228 23.3145C448.526 23.873 447.633 24.1523 446.549 24.1523ZM455.779 14.688C457.112 14.688 458.168 15.1133 458.946 15.9639C459.729 16.8145 460.121 17.9676 460.121 19.4233C460.121 20.8791 459.729 22.0322 458.946 22.8828C458.168 23.7292 457.112 24.1523 455.779 24.1523C454.442 24.1523 453.382 23.7292 452.599 22.8828C451.82 22.0322 451.431 20.8791 451.431 19.4233C451.431 17.9676 451.82 16.8145 452.599 15.9639C453.382 15.1133 454.442 14.688 455.779 14.688ZM457.728 16.9922C457.245 16.387 456.596 16.0845 455.779 16.0845C454.962 16.0845 454.312 16.3849 453.83 16.9858C453.348 17.5868 453.106 18.3993 453.106 19.4233C453.106 20.4432 453.348 21.2536 453.83 21.8545C454.312 22.4554 454.962 22.7559 455.779 22.7559C456.596 22.7559 457.245 22.4554 457.728 21.8545C458.21 21.2536 458.451 20.4432 458.451 19.4233C458.451 18.4035 458.21 17.5931 457.728 16.9922ZM463.066 24H461.428V14.8403H463.066V24ZM466.259 24H464.678V14.8403H466.1L470.645 21.2578H470.702V14.8403H472.276V24H470.867L466.316 17.5762H466.259V24Z" fill="#FFF500" fill-opacity="0.6"/>
<path d="M732.145 17.373L730.272 24H728.729L726.273 14.8403H727.974L729.561 21.7783H729.612L731.453 14.8403H732.9L734.741 21.7783H734.792L736.378 14.8403H738.08L735.623 24H734.081L732.208 17.373H732.145ZM744.294 24L743.513 21.6323H740.143L739.362 24H737.673L740.923 14.8403H742.771L746.021 24H744.294ZM741.806 16.459L740.523 20.3691H743.126L741.85 16.459H741.806ZM748.642 16.167V19.2964H750.489C751.01 19.2964 751.414 19.1589 751.702 18.8838C751.989 18.6087 752.133 18.2236 752.133 17.7285C752.133 17.2461 751.983 16.8652 751.683 16.5859C751.382 16.3066 750.974 16.167 750.458 16.167H748.642ZM748.642 20.5532V24H747.004V14.8403H750.642C751.628 14.8403 752.402 15.0964 752.965 15.6084C753.528 16.1162 753.809 16.8102 753.809 17.6904C753.809 18.304 753.657 18.8457 753.352 19.3154C753.047 19.7809 752.624 20.111 752.083 20.3057L754.082 24H752.216L750.413 20.5532H748.642ZM756.71 24H755.129V14.8403H756.551L761.096 21.2578H761.153V14.8403H762.728V24H761.318L756.767 17.5762H756.71V24ZM765.984 24H764.346V14.8403H765.984V24ZM769.177 24H767.596V14.8403H769.018L773.563 21.2578H773.62V14.8403H775.194V24H773.785L769.234 17.5762H769.177V24ZM784.83 20.1787C784.83 21.4229 784.477 22.3962 783.77 23.0986C783.068 23.8011 782.09 24.1523 780.837 24.1523C779.5 24.1523 778.442 23.7271 777.664 22.8765C776.889 22.0216 776.502 20.8579 776.502 19.3853C776.502 17.9338 776.887 16.7891 777.657 15.9512C778.432 15.109 779.481 14.688 780.806 14.688C781.847 14.688 782.729 14.9694 783.453 15.5322C784.176 16.0951 784.612 16.8356 784.76 17.7539H783.097C782.941 17.2292 782.661 16.8187 782.259 16.5225C781.857 16.2262 781.375 16.0781 780.812 16.0781C779.987 16.0781 779.341 16.368 778.876 16.9478C778.41 17.5275 778.178 18.3337 778.178 19.3662C778.178 20.4199 778.417 21.2493 778.895 21.8545C779.377 22.4596 780.031 22.7622 780.856 22.7622C781.546 22.7622 782.109 22.5633 782.545 22.1655C782.985 21.7677 783.211 21.2472 783.224 20.604L783.23 20.4517H781.021V19.2012H784.83V20.1787ZM787.141 24.0698C786.882 24.0698 786.665 23.9831 786.487 23.8096C786.313 23.6318 786.227 23.4139 786.227 23.1558C786.227 22.9019 786.313 22.686 786.487 22.5083C786.665 22.3306 786.882 22.2417 787.141 22.2417C787.395 22.2417 787.608 22.3306 787.782 22.5083C787.959 22.686 788.048 22.9019 788.048 23.1558C788.048 23.4139 787.959 23.6318 787.782 23.8096C787.608 23.9831 787.395 24.0698 787.141 24.0698ZM787.141 19.4868C786.882 19.4868 786.665 19.3979 786.487 19.2202C786.313 19.0425 786.227 18.8267 786.227 18.5728C786.227 18.3188 786.313 18.103 786.487 17.9253C786.665 17.7476 786.882 17.6587 787.141 17.6587C787.395 17.6587 787.608 17.7476 787.782 17.9253C787.959 18.103 788.048 18.3188 788.048 18.5728C788.048 18.8267 787.959 19.0425 787.782 19.2202C787.608 19.3979 787.395 19.4868 787.141 19.4868ZM796.173 24H794.542V16.2241H791.8V14.8403H798.909V16.2241H796.173V24ZM807.758 24H806.126V20.0264H801.67V24H800.033V14.8403H801.67V18.6489H806.126V14.8403H807.758V24ZM811.014 24H809.376V14.8403H811.014V24ZM812.252 21.4229H813.839C813.89 21.8418 814.105 22.1803 814.486 22.4385C814.867 22.6924 815.339 22.8193 815.902 22.8193C816.452 22.8193 816.901 22.6966 817.248 22.4512C817.599 22.2057 817.774 21.8926 817.774 21.5117C817.774 21.1816 817.647 20.915 817.394 20.7119C817.14 20.5046 816.725 20.3332 816.149 20.1978L814.962 19.9185C814.12 19.7238 813.494 19.4212 813.083 19.0107C812.677 18.6003 812.474 18.0671 812.474 17.4111C812.474 16.6029 812.792 15.9469 813.426 15.4434C814.061 14.9398 814.88 14.688 815.883 14.688C816.89 14.688 817.7 14.9377 818.314 15.437C818.932 15.9321 819.251 16.5838 819.272 17.3921H817.711C817.673 16.9647 817.489 16.6304 817.159 16.3892C816.829 16.1437 816.399 16.021 815.87 16.021C815.354 16.021 814.935 16.1374 814.613 16.3701C814.296 16.6029 814.137 16.9097 814.137 17.2905C814.137 17.5952 814.26 17.8428 814.505 18.0332C814.755 18.2236 815.161 18.3866 815.724 18.522L816.778 18.7632C817.705 18.9748 818.377 19.2837 818.796 19.6899C819.215 20.0962 819.425 20.64 819.425 21.3213C819.425 22.1888 819.099 22.8786 818.447 23.3906C817.8 23.8984 816.922 24.1523 815.813 24.1523C814.755 24.1523 813.904 23.909 813.261 23.4224C812.622 22.9315 812.286 22.265 812.252 21.4229ZM824.903 24H823.265V14.8403H824.903V24ZM826.141 21.4229H827.728C827.778 21.8418 827.994 22.1803 828.375 22.4385C828.756 22.6924 829.228 22.8193 829.791 22.8193C830.341 22.8193 830.789 22.6966 831.136 22.4512C831.487 22.2057 831.663 21.8926 831.663 21.5117C831.663 21.1816 831.536 20.915 831.282 20.7119C831.028 20.5046 830.614 20.3332 830.038 20.1978L828.851 19.9185C828.009 19.7238 827.383 19.4212 826.972 19.0107C826.566 18.6003 826.363 18.0671 826.363 17.4111C826.363 16.6029 826.68 15.9469 827.315 15.4434C827.95 14.9398 828.769 14.688 829.771 14.688C830.779 14.688 831.589 14.9377 832.203 15.437C832.82 15.9321 833.14 16.5838 833.161 17.3921H831.6C831.562 16.9647 831.377 16.6304 831.047 16.3892C830.717 16.1437 830.288 16.021 829.759 16.021C829.243 16.021 828.824 16.1374 828.502 16.3701C828.185 16.6029 828.026 16.9097 828.026 17.2905C828.026 17.5952 828.149 17.8428 828.394 18.0332C828.644 18.2236 829.05 18.3866 829.613 18.522L830.667 18.7632C831.593 18.9748 832.266 19.2837 832.685 19.6899C833.104 20.0962 833.313 20.64 833.313 21.3213C833.313 22.1888 832.988 22.8786 832.336 23.3906C831.688 23.8984 830.81 24.1523 829.702 24.1523C828.644 24.1523 827.793 23.909 827.15 23.4224C826.511 22.9315 826.174 22.265 826.141 21.4229ZM838.734 24H837.154V14.8403H838.576L843.121 21.2578H843.178V14.8403H844.752V24H843.343L838.792 17.5762H838.734V24ZM850.408 14.688C851.741 14.688 852.797 15.1133 853.575 15.9639C854.358 16.8145 854.75 17.9676 854.75 19.4233C854.75 20.8791 854.358 22.0322 853.575 22.8828C852.797 23.7292 851.741 24.1523 850.408 24.1523C849.07 24.1523 848.01 23.7292 847.228 22.8828C846.449 22.0322 846.06 20.8791 846.06 19.4233C846.06 17.9676 846.449 16.8145 847.228 15.9639C848.01 15.1133 849.07 14.688 850.408 14.688ZM852.356 16.9922C851.874 16.387 851.224 16.0845 850.408 16.0845C849.591 16.0845 848.941 16.3849 848.459 16.9858C847.977 17.5868 847.735 18.3993 847.735 19.4233C847.735 20.4432 847.977 21.2536 848.459 21.8545C848.941 22.4554 849.591 22.7559 850.408 22.7559C851.224 22.7559 851.874 22.4554 852.356 21.8545C852.839 21.2536 853.08 20.4432 853.08 19.4233C853.08 18.4035 852.839 17.5931 852.356 16.9922ZM859.396 24H857.765V16.2241H855.022V14.8403H862.132V16.2241H859.396V24ZM871.844 24L871.063 21.6323H867.692L866.912 24H865.223L868.473 14.8403H870.32L873.57 24H871.844ZM869.355 16.459L868.073 20.3691H870.676L869.4 16.459H869.355ZM886.608 24H885.136V17.5H885.091L882.444 23.9238H881.327L878.68 17.5H878.636V24H877.157V14.8403H879.055L881.86 21.7529H881.911L884.717 14.8403H886.608V24ZM894.156 22.6162V24H888.227V14.8403H894.156V16.2241H889.865V18.6997H893.921V20.001H889.865V22.6162H894.156ZM905.029 24H903.557V17.5H903.512L900.865 23.9238H899.748L897.101 17.5H897.057V24H895.578V14.8403H897.476L900.281 21.7529H900.332L903.138 14.8403H905.029V24ZM912.577 22.6162V24H906.648V14.8403H912.577V16.2241H908.286V18.6997H912.342V20.001H908.286V22.6162H912.577ZM920.549 24.1523C919.237 24.1523 918.199 23.7292 917.433 22.8828C916.671 22.0365 916.29 20.8812 916.29 19.417C916.29 17.9613 916.673 16.8102 917.439 15.9639C918.209 15.1133 919.246 14.688 920.549 14.688C921.616 14.688 922.515 14.9927 923.247 15.6021C923.979 16.2072 924.396 17.0007 924.498 17.9824H922.885C922.779 17.4069 922.511 16.9456 922.079 16.5986C921.652 16.2516 921.142 16.0781 920.549 16.0781C919.762 16.0781 919.134 16.3807 918.664 16.9858C918.199 17.5868 917.966 18.3971 917.966 19.417C917.966 20.4453 918.199 21.2599 918.664 21.8608C919.13 22.4618 919.76 22.7622 920.556 22.7622C921.161 22.7622 921.669 22.6077 922.079 22.2988C922.494 21.9857 922.765 21.554 922.892 21.0039H924.498C924.354 21.9857 923.931 22.7559 923.228 23.3145C922.526 23.873 921.633 24.1523 920.549 24.1523ZM929.779 14.688C931.112 14.688 932.168 15.1133 932.946 15.9639C933.729 16.8145 934.121 17.9676 934.121 19.4233C934.121 20.8791 933.729 22.0322 932.946 22.8828C932.168 23.7292 931.112 24.1523 929.779 24.1523C928.442 24.1523 927.382 23.7292 926.599 22.8828C925.82 22.0322 925.431 20.8791 925.431 19.4233C925.431 17.9676 925.82 16.8145 926.599 15.9639C927.382 15.1133 928.442 14.688 929.779 14.688ZM931.728 16.9922C931.245 16.387 930.596 16.0845 929.779 16.0845C928.962 16.0845 928.312 16.3849 927.83 16.9858C927.348 17.5868 927.106 18.3993 927.106 19.4233C927.106 20.4432 927.348 21.2536 927.83 21.8545C928.312 22.4554 928.962 22.7559 929.779 22.7559C930.596 22.7559 931.245 22.4554 931.728 21.8545C932.21 21.2536 932.451 20.4432 932.451 19.4233C932.451 18.4035 932.21 17.5931 931.728 16.9922ZM937.066 24H935.428V14.8403H937.066V24ZM940.259 24H938.678V14.8403H940.1L944.645 21.2578H944.702V14.8403H946.276V24H944.867L940.316 17.5762H940.259V24Z" fill="#FFF500" fill-opacity="0.6"/>
<path d="M969.145 17.373L967.272 24H965.729L963.273 14.8403H964.974L966.561 21.7783H966.612L968.453 14.8403H969.9L971.741 21.7783H971.792L973.378 14.8403H975.08L972.623 24H971.081L969.208 17.373H969.145ZM981.294 24L980.513 21.6323H977.143L976.362 24H974.673L977.923 14.8403H979.771L983.021 24H981.294ZM978.806 16.459L977.523 20.3691H980.126L978.85 16.459H978.806ZM985.642 16.167V19.2964H987.489C988.01 19.2964 988.414 19.1589 988.702 18.8838C988.989 18.6087 989.133 18.2236 989.133 17.7285C989.133 17.2461 988.983 16.8652 988.683 16.5859C988.382 16.3066 987.974 16.167 987.458 16.167H985.642ZM985.642 20.5532V24H984.004V14.8403H987.642C988.628 14.8403 989.402 15.0964 989.965 15.6084C990.528 16.1162 990.809 16.8102 990.809 17.6904C990.809 18.304 990.657 18.8457 990.352 19.3154C990.047 19.7809 989.624 20.111 989.083 20.3057L991.082 24H989.216L987.413 20.5532H985.642ZM993.71 24H992.129V14.8403H993.551L998.096 21.2578H998.153V14.8403H999.728V24H998.318L993.767 17.5762H993.71V24ZM1002.98 24H1001.35V14.8403H1002.98V24ZM1006.18 24H1004.6V14.8403H1006.02L1010.56 21.2578H1010.62V14.8403H1012.19V24H1010.79L1006.23 17.5762H1006.18V24ZM1021.83 20.1787C1021.83 21.4229 1021.48 22.3962 1020.77 23.0986C1020.07 23.8011 1019.09 24.1523 1017.84 24.1523C1016.5 24.1523 1015.44 23.7271 1014.66 22.8765C1013.89 22.0216 1013.5 20.8579 1013.5 19.3853C1013.5 17.9338 1013.89 16.7891 1014.66 15.9512C1015.43 15.109 1016.48 14.688 1017.81 14.688C1018.85 14.688 1019.73 14.9694 1020.45 15.5322C1021.18 16.0951 1021.61 16.8356 1021.76 17.7539H1020.1C1019.94 17.2292 1019.66 16.8187 1019.26 16.5225C1018.86 16.2262 1018.37 16.0781 1017.81 16.0781C1016.99 16.0781 1016.34 16.368 1015.88 16.9478C1015.41 17.5275 1015.18 18.3337 1015.18 19.3662C1015.18 20.4199 1015.42 21.2493 1015.9 21.8545C1016.38 22.4596 1017.03 22.7622 1017.86 22.7622C1018.55 22.7622 1019.11 22.5633 1019.54 22.1655C1019.99 21.7677 1020.21 21.2472 1020.22 20.604L1020.23 20.4517H1018.02V19.2012H1021.83V20.1787ZM1024.14 24.0698C1023.88 24.0698 1023.66 23.9831 1023.49 23.8096C1023.31 23.6318 1023.23 23.4139 1023.23 23.1558C1023.23 22.9019 1023.31 22.686 1023.49 22.5083C1023.66 22.3306 1023.88 22.2417 1024.14 22.2417C1024.39 22.2417 1024.61 22.3306 1024.78 22.5083C1024.96 22.686 1025.05 22.9019 1025.05 23.1558C1025.05 23.4139 1024.96 23.6318 1024.78 23.8096C1024.61 23.9831 1024.39 24.0698 1024.14 24.0698ZM1024.14 19.4868C1023.88 19.4868 1023.66 19.3979 1023.49 19.2202C1023.31 19.0425 1023.23 18.8267 1023.23 18.5728C1023.23 18.3188 1023.31 18.103 1023.49 17.9253C1023.66 17.7476 1023.88 17.6587 1024.14 17.6587C1024.39 17.6587 1024.61 17.7476 1024.78 17.9253C1024.96 18.103 1025.05 18.3188 1025.05 18.5728C1025.05 18.8267 1024.96 19.0425 1024.78 19.2202C1024.61 19.3979 1024.39 19.4868 1024.14 19.4868ZM1033.17 24H1031.54V16.2241H1028.8V14.8403H1035.91V16.2241H1033.17V24ZM1044.76 24H1043.13V20.0264H1038.67V24H1037.03V14.8403H1038.67V18.6489H1043.13V14.8403H1044.76V24ZM1048.01 24H1046.38V14.8403H1048.01V24ZM1049.25 21.4229H1050.84C1050.89 21.8418 1051.11 22.1803 1051.49 22.4385C1051.87 22.6924 1052.34 22.8193 1052.9 22.8193C1053.45 22.8193 1053.9 22.6966 1054.25 22.4512C1054.6 22.2057 1054.77 21.8926 1054.77 21.5117C1054.77 21.1816 1054.65 20.915 1054.39 20.7119C1054.14 20.5046 1053.72 20.3332 1053.15 20.1978L1051.96 19.9185C1051.12 19.7238 1050.49 19.4212 1050.08 19.0107C1049.68 18.6003 1049.47 18.0671 1049.47 17.4111C1049.47 16.6029 1049.79 15.9469 1050.43 15.4434C1051.06 14.9398 1051.88 14.688 1052.88 14.688C1053.89 14.688 1054.7 14.9377 1055.31 15.437C1055.93 15.9321 1056.25 16.5838 1056.27 17.3921H1054.71C1054.67 16.9647 1054.49 16.6304 1054.16 16.3892C1053.83 16.1437 1053.4 16.021 1052.87 16.021C1052.35 16.021 1051.93 16.1374 1051.61 16.3701C1051.3 16.6029 1051.14 16.9097 1051.14 17.2905C1051.14 17.5952 1051.26 17.8428 1051.51 18.0332C1051.76 18.2236 1052.16 18.3866 1052.72 18.522L1053.78 18.7632C1054.7 18.9748 1055.38 19.2837 1055.8 19.6899C1056.22 20.0962 1056.42 20.64 1056.42 21.3213C1056.42 22.1888 1056.1 22.8786 1055.45 23.3906C1054.8 23.8984 1053.92 24.1523 1052.81 24.1523C1051.76 24.1523 1050.9 23.909 1050.26 23.4224C1049.62 22.9315 1049.29 22.265 1049.25 21.4229ZM1061.9 24H1060.27V14.8403H1061.9V24ZM1063.14 21.4229H1064.73C1064.78 21.8418 1064.99 22.1803 1065.38 22.4385C1065.76 22.6924 1066.23 22.8193 1066.79 22.8193C1067.34 22.8193 1067.79 22.6966 1068.14 22.4512C1068.49 22.2057 1068.66 21.8926 1068.66 21.5117C1068.66 21.1816 1068.54 20.915 1068.28 20.7119C1068.03 20.5046 1067.61 20.3332 1067.04 20.1978L1065.85 19.9185C1065.01 19.7238 1064.38 19.4212 1063.97 19.0107C1063.57 18.6003 1063.36 18.0671 1063.36 17.4111C1063.36 16.6029 1063.68 15.9469 1064.31 15.4434C1064.95 14.9398 1065.77 14.688 1066.77 14.688C1067.78 14.688 1068.59 14.9377 1069.2 15.437C1069.82 15.9321 1070.14 16.5838 1070.16 17.3921H1068.6C1068.56 16.9647 1068.38 16.6304 1068.05 16.3892C1067.72 16.1437 1067.29 16.021 1066.76 16.021C1066.24 16.021 1065.82 16.1374 1065.5 16.3701C1065.18 16.6029 1065.03 16.9097 1065.03 17.2905C1065.03 17.5952 1065.15 17.8428 1065.39 18.0332C1065.64 18.2236 1066.05 18.3866 1066.61 18.522L1067.67 18.7632C1068.59 18.9748 1069.27 19.2837 1069.69 19.6899C1070.1 20.0962 1070.31 20.64 1070.31 21.3213C1070.31 22.1888 1069.99 22.8786 1069.34 23.3906C1068.69 23.8984 1067.81 24.1523 1066.7 24.1523C1065.64 24.1523 1064.79 23.909 1064.15 23.4224C1063.51 22.9315 1063.17 22.265 1063.14 21.4229ZM1075.73 24H1074.15V14.8403H1075.58L1080.12 21.2578H1080.18V14.8403H1081.75V24H1080.34L1075.79 17.5762H1075.73V24ZM1087.41 14.688C1088.74 14.688 1089.8 15.1133 1090.58 15.9639C1091.36 16.8145 1091.75 17.9676 1091.75 19.4233C1091.75 20.8791 1091.36 22.0322 1090.58 22.8828C1089.8 23.7292 1088.74 24.1523 1087.41 24.1523C1086.07 24.1523 1085.01 23.7292 1084.23 22.8828C1083.45 22.0322 1083.06 20.8791 1083.06 19.4233C1083.06 17.9676 1083.45 16.8145 1084.23 15.9639C1085.01 15.1133 1086.07 14.688 1087.41 14.688ZM1089.36 16.9922C1088.87 16.387 1088.22 16.0845 1087.41 16.0845C1086.59 16.0845 1085.94 16.3849 1085.46 16.9858C1084.98 17.5868 1084.74 18.3993 1084.74 19.4233C1084.74 20.4432 1084.98 21.2536 1085.46 21.8545C1085.94 22.4554 1086.59 22.7559 1087.41 22.7559C1088.22 22.7559 1088.87 22.4554 1089.36 21.8545C1089.84 21.2536 1090.08 20.4432 1090.08 19.4233C1090.08 18.4035 1089.84 17.5931 1089.36 16.9922ZM1096.4 24H1094.76V16.2241H1092.02V14.8403H1099.13V16.2241H1096.4V24ZM1108.84 24L1108.06 21.6323H1104.69L1103.91 24H1102.22L1105.47 14.8403H1107.32L1110.57 24H1108.84ZM1106.36 16.459L1105.07 20.3691H1107.68L1106.4 16.459H1106.36ZM1123.61 24H1122.14V17.5H1122.09L1119.44 23.9238H1118.33L1115.68 17.5H1115.64V24H1114.16V14.8403H1116.05L1118.86 21.7529H1118.91L1121.72 14.8403H1123.61V24ZM1131.16 22.6162V24H1125.23V14.8403H1131.16V16.2241H1126.86V18.6997H1130.92V20.001H1126.86V22.6162H1131.16ZM1142.03 24H1140.56V17.5H1140.51L1137.87 23.9238H1136.75L1134.1 17.5H1134.06V24H1132.58V14.8403H1134.48L1137.28 21.7529H1137.33L1140.14 14.8403H1142.03V24ZM1149.58 22.6162V24H1143.65V14.8403H1149.58V16.2241H1145.29V18.6997H1149.34V20.001H1145.29V22.6162H1149.58ZM1157.55 24.1523C1156.24 24.1523 1155.2 23.7292 1154.43 22.8828C1153.67 22.0365 1153.29 20.8812 1153.29 19.417C1153.29 17.9613 1153.67 16.8102 1154.44 15.9639C1155.21 15.1133 1156.25 14.688 1157.55 14.688C1158.62 14.688 1159.51 14.9927 1160.25 15.6021C1160.98 16.2072 1161.4 17.0007 1161.5 17.9824H1159.89C1159.78 17.4069 1159.51 16.9456 1159.08 16.5986C1158.65 16.2516 1158.14 16.0781 1157.55 16.0781C1156.76 16.0781 1156.13 16.3807 1155.66 16.9858C1155.2 17.5868 1154.97 18.3971 1154.97 19.417C1154.97 20.4453 1155.2 21.2599 1155.66 21.8608C1156.13 22.4618 1156.76 22.7622 1157.56 22.7622C1158.16 22.7622 1158.67 22.6077 1159.08 22.2988C1159.49 21.9857 1159.76 21.554 1159.89 21.0039H1161.5C1161.35 21.9857 1160.93 22.7559 1160.23 23.3145C1159.53 23.873 1158.63 24.1523 1157.55 24.1523ZM1166.78 14.688C1168.11 14.688 1169.17 15.1133 1169.95 15.9639C1170.73 16.8145 1171.12 17.9676 1171.12 19.4233C1171.12 20.8791 1170.73 22.0322 1169.95 22.8828C1169.17 23.7292 1168.11 24.1523 1166.78 24.1523C1165.44 24.1523 1164.38 23.7292 1163.6 22.8828C1162.82 22.0322 1162.43 20.8791 1162.43 19.4233C1162.43 17.9676 1162.82 16.8145 1163.6 15.9639C1164.38 15.1133 1165.44 14.688 1166.78 14.688ZM1168.73 16.9922C1168.25 16.387 1167.6 16.0845 1166.78 16.0845C1165.96 16.0845 1165.31 16.3849 1164.83 16.9858C1164.35 17.5868 1164.11 18.3993 1164.11 19.4233C1164.11 20.4432 1164.35 21.2536 1164.83 21.8545C1165.31 22.4554 1165.96 22.7559 1166.78 22.7559C1167.6 22.7559 1168.25 22.4554 1168.73 21.8545C1169.21 21.2536 1169.45 20.4432 1169.45 19.4233C1169.45 18.4035 1169.21 17.5931 1168.73 16.9922ZM1174.07 24H1172.43V14.8403H1174.07V24ZM1177.26 24H1175.68V14.8403H1177.1L1181.65 21.2578H1181.7V14.8403H1183.28V24H1181.87L1177.32 17.5762H1177.26V24Z" fill="#FFF500" fill-opacity="0.6"/>
<path d="M1443.14 17.373L1441.27 24H1439.73L1437.27 14.8403H1438.97L1440.56 21.7783H1440.61L1442.45 14.8403H1443.9L1445.74 21.7783H1445.79L1447.38 14.8403H1449.08L1446.62 24H1445.08L1443.21 17.373H1443.14ZM1455.29 24L1454.51 21.6323H1451.14L1450.36 24H1448.67L1451.92 14.8403H1453.77L1457.02 24H1455.29ZM1452.81 16.459L1451.52 20.3691H1454.13L1452.85 16.459H1452.81ZM1459.64 16.167V19.2964H1461.49C1462.01 19.2964 1462.41 19.1589 1462.7 18.8838C1462.99 18.6087 1463.13 18.2236 1463.13 17.7285C1463.13 17.2461 1462.98 16.8652 1462.68 16.5859C1462.38 16.3066 1461.97 16.167 1461.46 16.167H1459.64ZM1459.64 20.5532V24H1458V14.8403H1461.64C1462.63 14.8403 1463.4 15.0964 1463.96 15.6084C1464.53 16.1162 1464.81 16.8102 1464.81 17.6904C1464.81 18.304 1464.66 18.8457 1464.35 19.3154C1464.05 19.7809 1463.62 20.111 1463.08 20.3057L1465.08 24H1463.22L1461.41 20.5532H1459.64ZM1467.71 24H1466.13V14.8403H1467.55L1472.1 21.2578H1472.15V14.8403H1473.73V24H1472.32L1467.77 17.5762H1467.71V24ZM1476.98 24H1475.35V14.8403H1476.98V24ZM1480.18 24H1478.6V14.8403H1480.02L1484.56 21.2578H1484.62V14.8403H1486.19V24H1484.79L1480.23 17.5762H1480.18V24ZM1495.83 20.1787C1495.83 21.4229 1495.48 22.3962 1494.77 23.0986C1494.07 23.8011 1493.09 24.1523 1491.84 24.1523C1490.5 24.1523 1489.44 23.7271 1488.66 22.8765C1487.89 22.0216 1487.5 20.8579 1487.5 19.3853C1487.5 17.9338 1487.89 16.7891 1488.66 15.9512C1489.43 15.109 1490.48 14.688 1491.81 14.688C1492.85 14.688 1493.73 14.9694 1494.45 15.5322C1495.18 16.0951 1495.61 16.8356 1495.76 17.7539H1494.1C1493.94 17.2292 1493.66 16.8187 1493.26 16.5225C1492.86 16.2262 1492.37 16.0781 1491.81 16.0781C1490.99 16.0781 1490.34 16.368 1489.88 16.9478C1489.41 17.5275 1489.18 18.3337 1489.18 19.3662C1489.18 20.4199 1489.42 21.2493 1489.9 21.8545C1490.38 22.4596 1491.03 22.7622 1491.86 22.7622C1492.55 22.7622 1493.11 22.5633 1493.54 22.1655C1493.99 21.7677 1494.21 21.2472 1494.22 20.604L1494.23 20.4517H1492.02V19.2012H1495.83V20.1787ZM1498.14 24.0698C1497.88 24.0698 1497.66 23.9831 1497.49 23.8096C1497.31 23.6318 1497.23 23.4139 1497.23 23.1558C1497.23 22.9019 1497.31 22.686 1497.49 22.5083C1497.66 22.3306 1497.88 22.2417 1498.14 22.2417C1498.39 22.2417 1498.61 22.3306 1498.78 22.5083C1498.96 22.686 1499.05 22.9019 1499.05 23.1558C1499.05 23.4139 1498.96 23.6318 1498.78 23.8096C1498.61 23.9831 1498.39 24.0698 1498.14 24.0698ZM1498.14 19.4868C1497.88 19.4868 1497.66 19.3979 1497.49 19.2202C1497.31 19.0425 1497.23 18.8267 1497.23 18.5728C1497.23 18.3188 1497.31 18.103 1497.49 17.9253C1497.66 17.7476 1497.88 17.6587 1498.14 17.6587C1498.39 17.6587 1498.61 17.7476 1498.78 17.9253C1498.96 18.103 1499.05 18.3188 1499.05 18.5728C1499.05 18.8267 1498.96 19.0425 1498.78 19.2202C1498.61 19.3979 1498.39 19.4868 1498.14 19.4868ZM1507.17 24H1505.54V16.2241H1502.8V14.8403H1509.91V16.2241H1507.17V24ZM1518.76 24H1517.13V20.0264H1512.67V24H1511.03V14.8403H1512.67V18.6489H1517.13V14.8403H1518.76V24ZM1522.01 24H1520.38V14.8403H1522.01V24ZM1523.25 21.4229H1524.84C1524.89 21.8418 1525.11 22.1803 1525.49 22.4385C1525.87 22.6924 1526.34 22.8193 1526.9 22.8193C1527.45 22.8193 1527.9 22.6966 1528.25 22.4512C1528.6 22.2057 1528.77 21.8926 1528.77 21.5117C1528.77 21.1816 1528.65 20.915 1528.39 20.7119C1528.14 20.5046 1527.72 20.3332 1527.15 20.1978L1525.96 19.9185C1525.12 19.7238 1524.49 19.4212 1524.08 19.0107C1523.68 18.6003 1523.47 18.0671 1523.47 17.4111C1523.47 16.6029 1523.79 15.9469 1524.43 15.4434C1525.06 14.9398 1525.88 14.688 1526.88 14.688C1527.89 14.688 1528.7 14.9377 1529.31 15.437C1529.93 15.9321 1530.25 16.5838 1530.27 17.3921H1528.71C1528.67 16.9647 1528.49 16.6304 1528.16 16.3892C1527.83 16.1437 1527.4 16.021 1526.87 16.021C1526.35 16.021 1525.93 16.1374 1525.61 16.3701C1525.3 16.6029 1525.14 16.9097 1525.14 17.2905C1525.14 17.5952 1525.26 17.8428 1525.51 18.0332C1525.76 18.2236 1526.16 18.3866 1526.72 18.522L1527.78 18.7632C1528.7 18.9748 1529.38 19.2837 1529.8 19.6899C1530.22 20.0962 1530.42 20.64 1530.42 21.3213C1530.42 22.1888 1530.1 22.8786 1529.45 23.3906C1528.8 23.8984 1527.92 24.1523 1526.81 24.1523C1525.76 24.1523 1524.9 23.909 1524.26 23.4224C1523.62 22.9315 1523.29 22.265 1523.25 21.4229ZM1535.9 24H1534.27V14.8403H1535.9V24ZM1537.14 21.4229H1538.73C1538.78 21.8418 1538.99 22.1803 1539.38 22.4385C1539.76 22.6924 1540.23 22.8193 1540.79 22.8193C1541.34 22.8193 1541.79 22.6966 1542.14 22.4512C1542.49 22.2057 1542.66 21.8926 1542.66 21.5117C1542.66 21.1816 1542.54 20.915 1542.28 20.7119C1542.03 20.5046 1541.61 20.3332 1541.04 20.1978L1539.85 19.9185C1539.01 19.7238 1538.38 19.4212 1537.97 19.0107C1537.57 18.6003 1537.36 18.0671 1537.36 17.4111C1537.36 16.6029 1537.68 15.9469 1538.31 15.4434C1538.95 14.9398 1539.77 14.688 1540.77 14.688C1541.78 14.688 1542.59 14.9377 1543.2 15.437C1543.82 15.9321 1544.14 16.5838 1544.16 17.3921H1542.6C1542.56 16.9647 1542.38 16.6304 1542.05 16.3892C1541.72 16.1437 1541.29 16.021 1540.76 16.021C1540.24 16.021 1539.82 16.1374 1539.5 16.3701C1539.18 16.6029 1539.03 16.9097 1539.03 17.2905C1539.03 17.5952 1539.15 17.8428 1539.39 18.0332C1539.64 18.2236 1540.05 18.3866 1540.61 18.522L1541.67 18.7632C1542.59 18.9748 1543.27 19.2837 1543.69 19.6899C1544.1 20.0962 1544.31 20.64 1544.31 21.3213C1544.31 22.1888 1543.99 22.8786 1543.34 23.3906C1542.69 23.8984 1541.81 24.1523 1540.7 24.1523C1539.64 24.1523 1538.79 23.909 1538.15 23.4224C1537.51 22.9315 1537.17 22.265 1537.14 21.4229ZM1549.73 24H1548.15V14.8403H1549.58L1554.12 21.2578H1554.18V14.8403H1555.75V24H1554.34L1549.79 17.5762H1549.73V24ZM1561.41 14.688C1562.74 14.688 1563.8 15.1133 1564.58 15.9639C1565.36 16.8145 1565.75 17.9676 1565.75 19.4233C1565.75 20.8791 1565.36 22.0322 1564.58 22.8828C1563.8 23.7292 1562.74 24.1523 1561.41 24.1523C1560.07 24.1523 1559.01 23.7292 1558.23 22.8828C1557.45 22.0322 1557.06 20.8791 1557.06 19.4233C1557.06 17.9676 1557.45 16.8145 1558.23 15.9639C1559.01 15.1133 1560.07 14.688 1561.41 14.688ZM1563.36 16.9922C1562.87 16.387 1562.22 16.0845 1561.41 16.0845C1560.59 16.0845 1559.94 16.3849 1559.46 16.9858C1558.98 17.5868 1558.74 18.3993 1558.74 19.4233C1558.74 20.4432 1558.98 21.2536 1559.46 21.8545C1559.94 22.4554 1560.59 22.7559 1561.41 22.7559C1562.22 22.7559 1562.87 22.4554 1563.36 21.8545C1563.84 21.2536 1564.08 20.4432 1564.08 19.4233C1564.08 18.4035 1563.84 17.5931 1563.36 16.9922ZM1570.4 24H1568.76V16.2241H1566.02V14.8403H1573.13V16.2241H1570.4V24ZM1582.84 24L1582.06 21.6323H1578.69L1577.91 24H1576.22L1579.47 14.8403H1581.32L1584.57 24H1582.84ZM1580.36 16.459L1579.07 20.3691H1581.68L1580.4 16.459H1580.36ZM1597.61 24H1596.14V17.5H1596.09L1593.44 23.9238H1592.33L1589.68 17.5H1589.64V24H1588.16V14.8403H1590.05L1592.86 21.7529H1592.91L1595.72 14.8403H1597.61V24ZM1605.16 22.6162V24H1599.23V14.8403H1605.16V16.2241H1600.86V18.6997H1604.92V20.001H1600.86V22.6162H1605.16ZM1616.03 24H1614.56V17.5H1614.51L1611.87 23.9238H1610.75L1608.1 17.5H1608.06V24H1606.58V14.8403H1608.48L1611.28 21.7529H1611.33L1614.14 14.8403H1616.03V24ZM1623.58 22.6162V24H1617.65V14.8403H1623.58V16.2241H1619.29V18.6997H1623.34V20.001H1619.29V22.6162H1623.58ZM1631.55 24.1523C1630.24 24.1523 1629.2 23.7292 1628.43 22.8828C1627.67 22.0365 1627.29 20.8812 1627.29 19.417C1627.29 17.9613 1627.67 16.8102 1628.44 15.9639C1629.21 15.1133 1630.25 14.688 1631.55 14.688C1632.62 14.688 1633.51 14.9927 1634.25 15.6021C1634.98 16.2072 1635.4 17.0007 1635.5 17.9824H1633.89C1633.78 17.4069 1633.51 16.9456 1633.08 16.5986C1632.65 16.2516 1632.14 16.0781 1631.55 16.0781C1630.76 16.0781 1630.13 16.3807 1629.66 16.9858C1629.2 17.5868 1628.97 18.3971 1628.97 19.417C1628.97 20.4453 1629.2 21.2599 1629.66 21.8608C1630.13 22.4618 1630.76 22.7622 1631.56 22.7622C1632.16 22.7622 1632.67 22.6077 1633.08 22.2988C1633.49 21.9857 1633.76 21.554 1633.89 21.0039H1635.5C1635.35 21.9857 1634.93 22.7559 1634.23 23.3145C1633.53 23.873 1632.63 24.1523 1631.55 24.1523ZM1640.78 14.688C1642.11 14.688 1643.17 15.1133 1643.95 15.9639C1644.73 16.8145 1645.12 17.9676 1645.12 19.4233C1645.12 20.8791 1644.73 22.0322 1643.95 22.8828C1643.17 23.7292 1642.11 24.1523 1640.78 24.1523C1639.44 24.1523 1638.38 23.7292 1637.6 22.8828C1636.82 22.0322 1636.43 20.8791 1636.43 19.4233C1636.43 17.9676 1636.82 16.8145 1637.6 15.9639C1638.38 15.1133 1639.44 14.688 1640.78 14.688ZM1642.73 16.9922C1642.25 16.387 1641.6 16.0845 1640.78 16.0845C1639.96 16.0845 1639.31 16.3849 1638.83 16.9858C1638.35 17.5868 1638.11 18.3993 1638.11 19.4233C1638.11 20.4432 1638.35 21.2536 1638.83 21.8545C1639.31 22.4554 1639.96 22.7559 1640.78 22.7559C1641.6 22.7559 1642.25 22.4554 1642.73 21.8545C1643.21 21.2536 1643.45 20.4432 1643.45 19.4233C1643.45 18.4035 1643.21 17.5931 1642.73 16.9922ZM1648.07 24H1646.43V14.8403H1648.07V24ZM1651.26 24H1649.68V14.8403H1651.1L1655.65 21.2578H1655.7V14.8403H1657.28V24H1655.87L1651.32 17.5762H1651.26V24Z" fill="#FFF500" fill-opacity="0.6"/>
<path d="M1206.14 17.373L1204.27 24H1202.73L1200.27 14.8403H1201.97L1203.56 21.7783H1203.61L1205.45 14.8403H1206.9L1208.74 21.7783H1208.79L1210.38 14.8403H1212.08L1209.62 24H1208.08L1206.21 17.373H1206.14ZM1218.29 24L1217.51 21.6323H1214.14L1213.36 24H1211.67L1214.92 14.8403H1216.77L1220.02 24H1218.29ZM1215.81 16.459L1214.52 20.3691H1217.13L1215.85 16.459H1215.81ZM1222.64 16.167V19.2964H1224.49C1225.01 19.2964 1225.41 19.1589 1225.7 18.8838C1225.99 18.6087 1226.13 18.2236 1226.13 17.7285C1226.13 17.2461 1225.98 16.8652 1225.68 16.5859C1225.38 16.3066 1224.97 16.167 1224.46 16.167H1222.64ZM1222.64 20.5532V24H1221V14.8403H1224.64C1225.63 14.8403 1226.4 15.0964 1226.96 15.6084C1227.53 16.1162 1227.81 16.8102 1227.81 17.6904C1227.81 18.304 1227.66 18.8457 1227.35 19.3154C1227.05 19.7809 1226.62 20.111 1226.08 20.3057L1228.08 24H1226.22L1224.41 20.5532H1222.64ZM1230.71 24H1229.13V14.8403H1230.55L1235.1 21.2578H1235.15V14.8403H1236.73V24H1235.32L1230.77 17.5762H1230.71V24ZM1239.98 24H1238.35V14.8403H1239.98V24ZM1243.18 24H1241.6V14.8403H1243.02L1247.56 21.2578H1247.62V14.8403H1249.19V24H1247.79L1243.23 17.5762H1243.18V24ZM1258.83 20.1787C1258.83 21.4229 1258.48 22.3962 1257.77 23.0986C1257.07 23.8011 1256.09 24.1523 1254.84 24.1523C1253.5 24.1523 1252.44 23.7271 1251.66 22.8765C1250.89 22.0216 1250.5 20.8579 1250.5 19.3853C1250.5 17.9338 1250.89 16.7891 1251.66 15.9512C1252.43 15.109 1253.48 14.688 1254.81 14.688C1255.85 14.688 1256.73 14.9694 1257.45 15.5322C1258.18 16.0951 1258.61 16.8356 1258.76 17.7539H1257.1C1256.94 17.2292 1256.66 16.8187 1256.26 16.5225C1255.86 16.2262 1255.37 16.0781 1254.81 16.0781C1253.99 16.0781 1253.34 16.368 1252.88 16.9478C1252.41 17.5275 1252.18 18.3337 1252.18 19.3662C1252.18 20.4199 1252.42 21.2493 1252.9 21.8545C1253.38 22.4596 1254.03 22.7622 1254.86 22.7622C1255.55 22.7622 1256.11 22.5633 1256.54 22.1655C1256.99 21.7677 1257.21 21.2472 1257.22 20.604L1257.23 20.4517H1255.02V19.2012H1258.83V20.1787ZM1261.14 24.0698C1260.88 24.0698 1260.66 23.9831 1260.49 23.8096C1260.31 23.6318 1260.23 23.4139 1260.23 23.1558C1260.23 22.9019 1260.31 22.686 1260.49 22.5083C1260.66 22.3306 1260.88 22.2417 1261.14 22.2417C1261.39 22.2417 1261.61 22.3306 1261.78 22.5083C1261.96 22.686 1262.05 22.9019 1262.05 23.1558C1262.05 23.4139 1261.96 23.6318 1261.78 23.8096C1261.61 23.9831 1261.39 24.0698 1261.14 24.0698ZM1261.14 19.4868C1260.88 19.4868 1260.66 19.3979 1260.49 19.2202C1260.31 19.0425 1260.23 18.8267 1260.23 18.5728C1260.23 18.3188 1260.31 18.103 1260.49 17.9253C1260.66 17.7476 1260.88 17.6587 1261.14 17.6587C1261.39 17.6587 1261.61 17.7476 1261.78 17.9253C1261.96 18.103 1262.05 18.3188 1262.05 18.5728C1262.05 18.8267 1261.96 19.0425 1261.78 19.2202C1261.61 19.3979 1261.39 19.4868 1261.14 19.4868ZM1270.17 24H1268.54V16.2241H1265.8V14.8403H1272.91V16.2241H1270.17V24ZM1281.76 24H1280.13V20.0264H1275.67V24H1274.03V14.8403H1275.67V18.6489H1280.13V14.8403H1281.76V24ZM1285.01 24H1283.38V14.8403H1285.01V24ZM1286.25 21.4229H1287.84C1287.89 21.8418 1288.11 22.1803 1288.49 22.4385C1288.87 22.6924 1289.34 22.8193 1289.9 22.8193C1290.45 22.8193 1290.9 22.6966 1291.25 22.4512C1291.6 22.2057 1291.77 21.8926 1291.77 21.5117C1291.77 21.1816 1291.65 20.915 1291.39 20.7119C1291.14 20.5046 1290.72 20.3332 1290.15 20.1978L1288.96 19.9185C1288.12 19.7238 1287.49 19.4212 1287.08 19.0107C1286.68 18.6003 1286.47 18.0671 1286.47 17.4111C1286.47 16.6029 1286.79 15.9469 1287.43 15.4434C1288.06 14.9398 1288.88 14.688 1289.88 14.688C1290.89 14.688 1291.7 14.9377 1292.31 15.437C1292.93 15.9321 1293.25 16.5838 1293.27 17.3921H1291.71C1291.67 16.9647 1291.49 16.6304 1291.16 16.3892C1290.83 16.1437 1290.4 16.021 1289.87 16.021C1289.35 16.021 1288.93 16.1374 1288.61 16.3701C1288.3 16.6029 1288.14 16.9097 1288.14 17.2905C1288.14 17.5952 1288.26 17.8428 1288.51 18.0332C1288.76 18.2236 1289.16 18.3866 1289.72 18.522L1290.78 18.7632C1291.7 18.9748 1292.38 19.2837 1292.8 19.6899C1293.22 20.0962 1293.42 20.64 1293.42 21.3213C1293.42 22.1888 1293.1 22.8786 1292.45 23.3906C1291.8 23.8984 1290.92 24.1523 1289.81 24.1523C1288.76 24.1523 1287.9 23.909 1287.26 23.4224C1286.62 22.9315 1286.29 22.265 1286.25 21.4229ZM1298.9 24H1297.27V14.8403H1298.9V24ZM1300.14 21.4229H1301.73C1301.78 21.8418 1301.99 22.1803 1302.38 22.4385C1302.76 22.6924 1303.23 22.8193 1303.79 22.8193C1304.34 22.8193 1304.79 22.6966 1305.14 22.4512C1305.49 22.2057 1305.66 21.8926 1305.66 21.5117C1305.66 21.1816 1305.54 20.915 1305.28 20.7119C1305.03 20.5046 1304.61 20.3332 1304.04 20.1978L1302.85 19.9185C1302.01 19.7238 1301.38 19.4212 1300.97 19.0107C1300.57 18.6003 1300.36 18.0671 1300.36 17.4111C1300.36 16.6029 1300.68 15.9469 1301.31 15.4434C1301.95 14.9398 1302.77 14.688 1303.77 14.688C1304.78 14.688 1305.59 14.9377 1306.2 15.437C1306.82 15.9321 1307.14 16.5838 1307.16 17.3921H1305.6C1305.56 16.9647 1305.38 16.6304 1305.05 16.3892C1304.72 16.1437 1304.29 16.021 1303.76 16.021C1303.24 16.021 1302.82 16.1374 1302.5 16.3701C1302.18 16.6029 1302.03 16.9097 1302.03 17.2905C1302.03 17.5952 1302.15 17.8428 1302.39 18.0332C1302.64 18.2236 1303.05 18.3866 1303.61 18.522L1304.67 18.7632C1305.59 18.9748 1306.27 19.2837 1306.69 19.6899C1307.1 20.0962 1307.31 20.64 1307.31 21.3213C1307.31 22.1888 1306.99 22.8786 1306.34 23.3906C1305.69 23.8984 1304.81 24.1523 1303.7 24.1523C1302.64 24.1523 1301.79 23.909 1301.15 23.4224C1300.51 22.9315 1300.17 22.265 1300.14 21.4229ZM1312.73 24H1311.15V14.8403H1312.58L1317.12 21.2578H1317.18V14.8403H1318.75V24H1317.34L1312.79 17.5762H1312.73V24ZM1324.41 14.688C1325.74 14.688 1326.8 15.1133 1327.58 15.9639C1328.36 16.8145 1328.75 17.9676 1328.75 19.4233C1328.75 20.8791 1328.36 22.0322 1327.58 22.8828C1326.8 23.7292 1325.74 24.1523 1324.41 24.1523C1323.07 24.1523 1322.01 23.7292 1321.23 22.8828C1320.45 22.0322 1320.06 20.8791 1320.06 19.4233C1320.06 17.9676 1320.45 16.8145 1321.23 15.9639C1322.01 15.1133 1323.07 14.688 1324.41 14.688ZM1326.36 16.9922C1325.87 16.387 1325.22 16.0845 1324.41 16.0845C1323.59 16.0845 1322.94 16.3849 1322.46 16.9858C1321.98 17.5868 1321.74 18.3993 1321.74 19.4233C1321.74 20.4432 1321.98 21.2536 1322.46 21.8545C1322.94 22.4554 1323.59 22.7559 1324.41 22.7559C1325.22 22.7559 1325.87 22.4554 1326.36 21.8545C1326.84 21.2536 1327.08 20.4432 1327.08 19.4233C1327.08 18.4035 1326.84 17.5931 1326.36 16.9922ZM1333.4 24H1331.76V16.2241H1329.02V14.8403H1336.13V16.2241H1333.4V24ZM1345.84 24L1345.06 21.6323H1341.69L1340.91 24H1339.22L1342.47 14.8403H1344.32L1347.57 24H1345.84ZM1343.36 16.459L1342.07 20.3691H1344.68L1343.4 16.459H1343.36ZM1360.61 24H1359.14V17.5H1359.09L1356.44 23.9238H1355.33L1352.68 17.5H1352.64V24H1351.16V14.8403H1353.05L1355.86 21.7529H1355.91L1358.72 14.8403H1360.61V24ZM1368.16 22.6162V24H1362.23V14.8403H1368.16V16.2241H1363.86V18.6997H1367.92V20.001H1363.86V22.6162H1368.16ZM1379.03 24H1377.56V17.5H1377.51L1374.87 23.9238H1373.75L1371.1 17.5H1371.06V24H1369.58V14.8403H1371.48L1374.28 21.7529H1374.33L1377.14 14.8403H1379.03V24ZM1386.58 22.6162V24H1380.65V14.8403H1386.58V16.2241H1382.29V18.6997H1386.34V20.001H1382.29V22.6162H1386.58ZM1394.55 24.1523C1393.24 24.1523 1392.2 23.7292 1391.43 22.8828C1390.67 22.0365 1390.29 20.8812 1390.29 19.417C1390.29 17.9613 1390.67 16.8102 1391.44 15.9639C1392.21 15.1133 1393.25 14.688 1394.55 14.688C1395.62 14.688 1396.51 14.9927 1397.25 15.6021C1397.98 16.2072 1398.4 17.0007 1398.5 17.9824H1396.89C1396.78 17.4069 1396.51 16.9456 1396.08 16.5986C1395.65 16.2516 1395.14 16.0781 1394.55 16.0781C1393.76 16.0781 1393.13 16.3807 1392.66 16.9858C1392.2 17.5868 1391.97 18.3971 1391.97 19.417C1391.97 20.4453 1392.2 21.2599 1392.66 21.8608C1393.13 22.4618 1393.76 22.7622 1394.56 22.7622C1395.16 22.7622 1395.67 22.6077 1396.08 22.2988C1396.49 21.9857 1396.76 21.554 1396.89 21.0039H1398.5C1398.35 21.9857 1397.93 22.7559 1397.23 23.3145C1396.53 23.873 1395.63 24.1523 1394.55 24.1523ZM1403.78 14.688C1405.11 14.688 1406.17 15.1133 1406.95 15.9639C1407.73 16.8145 1408.12 17.9676 1408.12 19.4233C1408.12 20.8791 1407.73 22.0322 1406.95 22.8828C1406.17 23.7292 1405.11 24.1523 1403.78 24.1523C1402.44 24.1523 1401.38 23.7292 1400.6 22.8828C1399.82 22.0322 1399.43 20.8791 1399.43 19.4233C1399.43 17.9676 1399.82 16.8145 1400.6 15.9639C1401.38 15.1133 1402.44 14.688 1403.78 14.688ZM1405.73 16.9922C1405.25 16.387 1404.6 16.0845 1403.78 16.0845C1402.96 16.0845 1402.31 16.3849 1401.83 16.9858C1401.35 17.5868 1401.11 18.3993 1401.11 19.4233C1401.11 20.4432 1401.35 21.2536 1401.83 21.8545C1402.31 22.4554 1402.96 22.7559 1403.78 22.7559C1404.6 22.7559 1405.25 22.4554 1405.73 21.8545C1406.21 21.2536 1406.45 20.4432 1406.45 19.4233C1406.45 18.4035 1406.21 17.5931 1405.73 16.9922ZM1411.07 24H1409.43V14.8403H1411.07V24ZM1414.26 24H1412.68V14.8403H1414.1L1418.65 21.2578H1418.7V14.8403H1420.28V24H1418.87L1414.32 17.5762H1414.26V24Z" fill="#FFF500" fill-opacity="0.6"/>
<path d="M1680.14 17.373L1678.27 24H1676.73L1674.27 14.8403H1675.97L1677.56 21.7783H1677.61L1679.45 14.8403H1680.9L1682.74 21.7783H1682.79L1684.38 14.8403H1686.08L1683.62 24H1682.08L1680.21 17.373H1680.14ZM1692.29 24L1691.51 21.6323H1688.14L1687.36 24H1685.67L1688.92 14.8403H1690.77L1694.02 24H1692.29ZM1689.81 16.459L1688.52 20.3691H1691.13L1689.85 16.459H1689.81ZM1696.64 16.167V19.2964H1698.49C1699.01 19.2964 1699.41 19.1589 1699.7 18.8838C1699.99 18.6087 1700.13 18.2236 1700.13 17.7285C1700.13 17.2461 1699.98 16.8652 1699.68 16.5859C1699.38 16.3066 1698.97 16.167 1698.46 16.167H1696.64ZM1696.64 20.5532V24H1695V14.8403H1698.64C1699.63 14.8403 1700.4 15.0964 1700.96 15.6084C1701.53 16.1162 1701.81 16.8102 1701.81 17.6904C1701.81 18.304 1701.66 18.8457 1701.35 19.3154C1701.05 19.7809 1700.62 20.111 1700.08 20.3057L1702.08 24H1700.22L1698.41 20.5532H1696.64ZM1704.71 24H1703.13V14.8403H1704.55L1709.1 21.2578H1709.15V14.8403H1710.73V24H1709.32L1704.77 17.5762H1704.71V24ZM1713.98 24H1712.35V14.8403H1713.98V24ZM1717.18 24H1715.6V14.8403H1717.02L1721.56 21.2578H1721.62V14.8403H1723.19V24H1721.79L1717.23 17.5762H1717.18V24ZM1732.83 20.1787C1732.83 21.4229 1732.48 22.3962 1731.77 23.0986C1731.07 23.8011 1730.09 24.1523 1728.84 24.1523C1727.5 24.1523 1726.44 23.7271 1725.66 22.8765C1724.89 22.0216 1724.5 20.8579 1724.5 19.3853C1724.5 17.9338 1724.89 16.7891 1725.66 15.9512C1726.43 15.109 1727.48 14.688 1728.81 14.688C1729.85 14.688 1730.73 14.9694 1731.45 15.5322C1732.18 16.0951 1732.61 16.8356 1732.76 17.7539H1731.1C1730.94 17.2292 1730.66 16.8187 1730.26 16.5225C1729.86 16.2262 1729.37 16.0781 1728.81 16.0781C1727.99 16.0781 1727.34 16.368 1726.88 16.9478C1726.41 17.5275 1726.18 18.3337 1726.18 19.3662C1726.18 20.4199 1726.42 21.2493 1726.9 21.8545C1727.38 22.4596 1728.03 22.7622 1728.86 22.7622C1729.55 22.7622 1730.11 22.5633 1730.54 22.1655C1730.99 21.7677 1731.21 21.2472 1731.22 20.604L1731.23 20.4517H1729.02V19.2012H1732.83V20.1787ZM1735.14 24.0698C1734.88 24.0698 1734.66 23.9831 1734.49 23.8096C1734.31 23.6318 1734.23 23.4139 1734.23 23.1558C1734.23 22.9019 1734.31 22.686 1734.49 22.5083C1734.66 22.3306 1734.88 22.2417 1735.14 22.2417C1735.39 22.2417 1735.61 22.3306 1735.78 22.5083C1735.96 22.686 1736.05 22.9019 1736.05 23.1558C1736.05 23.4139 1735.96 23.6318 1735.78 23.8096C1735.61 23.9831 1735.39 24.0698 1735.14 24.0698ZM1735.14 19.4868C1734.88 19.4868 1734.66 19.3979 1734.49 19.2202C1734.31 19.0425 1734.23 18.8267 1734.23 18.5728C1734.23 18.3188 1734.31 18.103 1734.49 17.9253C1734.66 17.7476 1734.88 17.6587 1735.14 17.6587C1735.39 17.6587 1735.61 17.7476 1735.78 17.9253C1735.96 18.103 1736.05 18.3188 1736.05 18.5728C1736.05 18.8267 1735.96 19.0425 1735.78 19.2202C1735.61 19.3979 1735.39 19.4868 1735.14 19.4868ZM1744.17 24H1742.54V16.2241H1739.8V14.8403H1746.91V16.2241H1744.17V24ZM1755.76 24H1754.13V20.0264H1749.67V24H1748.03V14.8403H1749.67V18.6489H1754.13V14.8403H1755.76V24ZM1759.01 24H1757.38V14.8403H1759.01V24ZM1760.25 21.4229H1761.84C1761.89 21.8418 1762.11 22.1803 1762.49 22.4385C1762.87 22.6924 1763.34 22.8193 1763.9 22.8193C1764.45 22.8193 1764.9 22.6966 1765.25 22.4512C1765.6 22.2057 1765.77 21.8926 1765.77 21.5117C1765.77 21.1816 1765.65 20.915 1765.39 20.7119C1765.14 20.5046 1764.72 20.3332 1764.15 20.1978L1762.96 19.9185C1762.12 19.7238 1761.49 19.4212 1761.08 19.0107C1760.68 18.6003 1760.47 18.0671 1760.47 17.4111C1760.47 16.6029 1760.79 15.9469 1761.43 15.4434C1762.06 14.9398 1762.88 14.688 1763.88 14.688C1764.89 14.688 1765.7 14.9377 1766.31 15.437C1766.93 15.9321 1767.25 16.5838 1767.27 17.3921H1765.71C1765.67 16.9647 1765.49 16.6304 1765.16 16.3892C1764.83 16.1437 1764.4 16.021 1763.87 16.021C1763.35 16.021 1762.93 16.1374 1762.61 16.3701C1762.3 16.6029 1762.14 16.9097 1762.14 17.2905C1762.14 17.5952 1762.26 17.8428 1762.51 18.0332C1762.76 18.2236 1763.16 18.3866 1763.72 18.522L1764.78 18.7632C1765.7 18.9748 1766.38 19.2837 1766.8 19.6899C1767.22 20.0962 1767.42 20.64 1767.42 21.3213C1767.42 22.1888 1767.1 22.8786 1766.45 23.3906C1765.8 23.8984 1764.92 24.1523 1763.81 24.1523C1762.76 24.1523 1761.9 23.909 1761.26 23.4224C1760.62 22.9315 1760.29 22.265 1760.25 21.4229ZM1772.9 24H1771.27V14.8403H1772.9V24ZM1774.14 21.4229H1775.73C1775.78 21.8418 1775.99 22.1803 1776.38 22.4385C1776.76 22.6924 1777.23 22.8193 1777.79 22.8193C1778.34 22.8193 1778.79 22.6966 1779.14 22.4512C1779.49 22.2057 1779.66 21.8926 1779.66 21.5117C1779.66 21.1816 1779.54 20.915 1779.28 20.7119C1779.03 20.5046 1778.61 20.3332 1778.04 20.1978L1776.85 19.9185C1776.01 19.7238 1775.38 19.4212 1774.97 19.0107C1774.57 18.6003 1774.36 18.0671 1774.36 17.4111C1774.36 16.6029 1774.68 15.9469 1775.31 15.4434C1775.95 14.9398 1776.77 14.688 1777.77 14.688C1778.78 14.688 1779.59 14.9377 1780.2 15.437C1780.82 15.9321 1781.14 16.5838 1781.16 17.3921H1779.6C1779.56 16.9647 1779.38 16.6304 1779.05 16.3892C1778.72 16.1437 1778.29 16.021 1777.76 16.021C1777.24 16.021 1776.82 16.1374 1776.5 16.3701C1776.18 16.6029 1776.03 16.9097 1776.03 17.2905C1776.03 17.5952 1776.15 17.8428 1776.39 18.0332C1776.64 18.2236 1777.05 18.3866 1777.61 18.522L1778.67 18.7632C1779.59 18.9748 1780.27 19.2837 1780.69 19.6899C1781.1 20.0962 1781.31 20.64 1781.31 21.3213C1781.31 22.1888 1780.99 22.8786 1780.34 23.3906C1779.69 23.8984 1778.81 24.1523 1777.7 24.1523C1776.64 24.1523 1775.79 23.909 1775.15 23.4224C1774.51 22.9315 1774.17 22.265 1774.14 21.4229ZM1786.73 24H1785.15V14.8403H1786.58L1791.12 21.2578H1791.18V14.8403H1792.75V24H1791.34L1786.79 17.5762H1786.73V24ZM1798.41 14.688C1799.74 14.688 1800.8 15.1133 1801.58 15.9639C1802.36 16.8145 1802.75 17.9676 1802.75 19.4233C1802.75 20.8791 1802.36 22.0322 1801.58 22.8828C1800.8 23.7292 1799.74 24.1523 1798.41 24.1523C1797.07 24.1523 1796.01 23.7292 1795.23 22.8828C1794.45 22.0322 1794.06 20.8791 1794.06 19.4233C1794.06 17.9676 1794.45 16.8145 1795.23 15.9639C1796.01 15.1133 1797.07 14.688 1798.41 14.688ZM1800.36 16.9922C1799.87 16.387 1799.22 16.0845 1798.41 16.0845C1797.59 16.0845 1796.94 16.3849 1796.46 16.9858C1795.98 17.5868 1795.74 18.3993 1795.74 19.4233C1795.74 20.4432 1795.98 21.2536 1796.46 21.8545C1796.94 22.4554 1797.59 22.7559 1798.41 22.7559C1799.22 22.7559 1799.87 22.4554 1800.36 21.8545C1800.84 21.2536 1801.08 20.4432 1801.08 19.4233C1801.08 18.4035 1800.84 17.5931 1800.36 16.9922ZM1807.4 24H1805.76V16.2241H1803.02V14.8403H1810.13V16.2241H1807.4V24ZM1819.84 24L1819.06 21.6323H1815.69L1814.91 24H1813.22L1816.47 14.8403H1818.32L1821.57 24H1819.84ZM1817.36 16.459L1816.07 20.3691H1818.68L1817.4 16.459H1817.36ZM1834.61 24H1833.14V17.5H1833.09L1830.44 23.9238H1829.33L1826.68 17.5H1826.64V24H1825.16V14.8403H1827.05L1829.86 21.7529H1829.91L1832.72 14.8403H1834.61V24ZM1842.16 22.6162V24H1836.23V14.8403H1842.16V16.2241H1837.86V18.6997H1841.92V20.001H1837.86V22.6162H1842.16ZM1853.03 24H1851.56V17.5H1851.51L1848.87 23.9238H1847.75L1845.1 17.5H1845.06V24H1843.58V14.8403H1845.48L1848.28 21.7529H1848.33L1851.14 14.8403H1853.03V24ZM1860.58 22.6162V24H1854.65V14.8403H1860.58V16.2241H1856.29V18.6997H1860.34V20.001H1856.29V22.6162H1860.58ZM1868.55 24.1523C1867.24 24.1523 1866.2 23.7292 1865.43 22.8828C1864.67 22.0365 1864.29 20.8812 1864.29 19.417C1864.29 17.9613 1864.67 16.8102 1865.44 15.9639C1866.21 15.1133 1867.25 14.688 1868.55 14.688C1869.62 14.688 1870.51 14.9927 1871.25 15.6021C1871.98 16.2072 1872.4 17.0007 1872.5 17.9824H1870.89C1870.78 17.4069 1870.51 16.9456 1870.08 16.5986C1869.65 16.2516 1869.14 16.0781 1868.55 16.0781C1867.76 16.0781 1867.13 16.3807 1866.66 16.9858C1866.2 17.5868 1865.97 18.3971 1865.97 19.417C1865.97 20.4453 1866.2 21.2599 1866.66 21.8608C1867.13 22.4618 1867.76 22.7622 1868.56 22.7622C1869.16 22.7622 1869.67 22.6077 1870.08 22.2988C1870.49 21.9857 1870.76 21.554 1870.89 21.0039H1872.5C1872.35 21.9857 1871.93 22.7559 1871.23 23.3145C1870.53 23.873 1869.63 24.1523 1868.55 24.1523ZM1877.78 14.688C1879.11 14.688 1880.17 15.1133 1880.95 15.9639C1881.73 16.8145 1882.12 17.9676 1882.12 19.4233C1882.12 20.8791 1881.73 22.0322 1880.95 22.8828C1880.17 23.7292 1879.11 24.1523 1877.78 24.1523C1876.44 24.1523 1875.38 23.7292 1874.6 22.8828C1873.82 22.0322 1873.43 20.8791 1873.43 19.4233C1873.43 17.9676 1873.82 16.8145 1874.6 15.9639C1875.38 15.1133 1876.44 14.688 1877.78 14.688ZM1879.73 16.9922C1879.25 16.387 1878.6 16.0845 1877.78 16.0845C1876.96 16.0845 1876.31 16.3849 1875.83 16.9858C1875.35 17.5868 1875.11 18.3993 1875.11 19.4233C1875.11 20.4432 1875.35 21.2536 1875.83 21.8545C1876.31 22.4554 1876.96 22.7559 1877.78 22.7559C1878.6 22.7559 1879.25 22.4554 1879.73 21.8545C1880.21 21.2536 1880.45 20.4432 1880.45 19.4233C1880.45 18.4035 1880.21 17.5931 1879.73 16.9922ZM1885.07 24H1883.43V14.8403H1885.07V24ZM1888.26 24H1886.68V14.8403H1888.1L1892.65 21.2578H1892.7V14.8403H1894.28V24H1892.87L1888.32 17.5762H1888.26V24Z" fill="#FFF500" fill-opacity="0.6"/>
<path d="M1917.14 17.373L1915.27 24H1913.73L1911.27 14.8403H1912.97L1914.56 21.7783H1914.61L1916.45 14.8403H1917.9L1919.74 21.7783H1919.79L1921.38 14.8403H1923.08L1920.62 24H1919.08L1917.21 17.373H1917.14ZM1929.29 24L1928.51 21.6323H1925.14L1924.36 24H1922.67L1925.92 14.8403H1927.77L1931.02 24H1929.29ZM1926.81 16.459L1925.52 20.3691H1928.13L1926.85 16.459H1926.81ZM1933.64 16.167V19.2964H1935.49C1936.01 19.2964 1936.41 19.1589 1936.7 18.8838C1936.99 18.6087 1937.13 18.2236 1937.13 17.7285C1937.13 17.2461 1936.98 16.8652 1936.68 16.5859C1936.38 16.3066 1935.97 16.167 1935.46 16.167H1933.64ZM1933.64 20.5532V24H1932V14.8403H1935.64C1936.63 14.8403 1937.4 15.0964 1937.96 15.6084C1938.53 16.1162 1938.81 16.8102 1938.81 17.6904C1938.81 18.304 1938.66 18.8457 1938.35 19.3154C1938.05 19.7809 1937.62 20.111 1937.08 20.3057L1939.08 24H1937.22L1935.41 20.5532H1933.64ZM1941.71 24H1940.13V14.8403H1941.55L1946.1 21.2578H1946.15V14.8403H1947.73V24H1946.32L1941.77 17.5762H1941.71V24ZM1950.98 24H1949.35V14.8403H1950.98V24ZM1954.18 24H1952.6V14.8403H1954.02L1958.56 21.2578H1958.62V14.8403H1960.19V24H1958.79L1954.23 17.5762H1954.18V24ZM1969.83 20.1787C1969.83 21.4229 1969.48 22.3962 1968.77 23.0986C1968.07 23.8011 1967.09 24.1523 1965.84 24.1523C1964.5 24.1523 1963.44 23.7271 1962.66 22.8765C1961.89 22.0216 1961.5 20.8579 1961.5 19.3853C1961.5 17.9338 1961.89 16.7891 1962.66 15.9512C1963.43 15.109 1964.48 14.688 1965.81 14.688C1966.85 14.688 1967.73 14.9694 1968.45 15.5322C1969.18 16.0951 1969.61 16.8356 1969.76 17.7539H1968.1C1967.94 17.2292 1967.66 16.8187 1967.26 16.5225C1966.86 16.2262 1966.37 16.0781 1965.81 16.0781C1964.99 16.0781 1964.34 16.368 1963.88 16.9478C1963.41 17.5275 1963.18 18.3337 1963.18 19.3662C1963.18 20.4199 1963.42 21.2493 1963.9 21.8545C1964.38 22.4596 1965.03 22.7622 1965.86 22.7622C1966.55 22.7622 1967.11 22.5633 1967.54 22.1655C1967.99 21.7677 1968.21 21.2472 1968.22 20.604L1968.23 20.4517H1966.02V19.2012H1969.83V20.1787ZM1972.14 24.0698C1971.88 24.0698 1971.66 23.9831 1971.49 23.8096C1971.31 23.6318 1971.23 23.4139 1971.23 23.1558C1971.23 22.9019 1971.31 22.686 1971.49 22.5083C1971.66 22.3306 1971.88 22.2417 1972.14 22.2417C1972.39 22.2417 1972.61 22.3306 1972.78 22.5083C1972.96 22.686 1973.05 22.9019 1973.05 23.1558C1973.05 23.4139 1972.96 23.6318 1972.78 23.8096C1972.61 23.9831 1972.39 24.0698 1972.14 24.0698ZM1972.14 19.4868C1971.88 19.4868 1971.66 19.3979 1971.49 19.2202C1971.31 19.0425 1971.23 18.8267 1971.23 18.5728C1971.23 18.3188 1971.31 18.103 1971.49 17.9253C1971.66 17.7476 1971.88 17.6587 1972.14 17.6587C1972.39 17.6587 1972.61 17.7476 1972.78 17.9253C1972.96 18.103 1973.05 18.3188 1973.05 18.5728C1973.05 18.8267 1972.96 19.0425 1972.78 19.2202C1972.61 19.3979 1972.39 19.4868 1972.14 19.4868ZM1981.17 24H1979.54V16.2241H1976.8V14.8403H1983.91V16.2241H1981.17V24ZM1992.76 24H1991.13V20.0264H1986.67V24H1985.03V14.8403H1986.67V18.6489H1991.13V14.8403H1992.76V24ZM1996.01 24H1994.38V14.8403H1996.01V24ZM1997.25 21.4229H1998.84C1998.89 21.8418 1999.11 22.1803 1999.49 22.4385C1999.87 22.6924 2000.34 22.8193 2000.9 22.8193C2001.45 22.8193 2001.9 22.6966 2002.25 22.4512C2002.6 22.2057 2002.77 21.8926 2002.77 21.5117C2002.77 21.1816 2002.65 20.915 2002.39 20.7119C2002.14 20.5046 2001.72 20.3332 2001.15 20.1978L1999.96 19.9185C1999.12 19.7238 1998.49 19.4212 1998.08 19.0107C1997.68 18.6003 1997.47 18.0671 1997.47 17.4111C1997.47 16.6029 1997.79 15.9469 1998.43 15.4434C1999.06 14.9398 1999.88 14.688 2000.88 14.688C2001.89 14.688 2002.7 14.9377 2003.31 15.437C2003.93 15.9321 2004.25 16.5838 2004.27 17.3921H2002.71C2002.67 16.9647 2002.49 16.6304 2002.16 16.3892C2001.83 16.1437 2001.4 16.021 2000.87 16.021C2000.35 16.021 1999.93 16.1374 1999.61 16.3701C1999.3 16.6029 1999.14 16.9097 1999.14 17.2905C1999.14 17.5952 1999.26 17.8428 1999.51 18.0332C1999.76 18.2236 2000.16 18.3866 2000.72 18.522L2001.78 18.7632C2002.7 18.9748 2003.38 19.2837 2003.8 19.6899C2004.22 20.0962 2004.42 20.64 2004.42 21.3213C2004.42 22.1888 2004.1 22.8786 2003.45 23.3906C2002.8 23.8984 2001.92 24.1523 2000.81 24.1523C1999.76 24.1523 1998.9 23.909 1998.26 23.4224C1997.62 22.9315 1997.29 22.265 1997.25 21.4229ZM2009.9 24H2008.27V14.8403H2009.9V24ZM2011.14 21.4229H2012.73C2012.78 21.8418 2012.99 22.1803 2013.38 22.4385C2013.76 22.6924 2014.23 22.8193 2014.79 22.8193C2015.34 22.8193 2015.79 22.6966 2016.14 22.4512C2016.49 22.2057 2016.66 21.8926 2016.66 21.5117C2016.66 21.1816 2016.54 20.915 2016.28 20.7119C2016.03 20.5046 2015.61 20.3332 2015.04 20.1978L2013.85 19.9185C2013.01 19.7238 2012.38 19.4212 2011.97 19.0107C2011.57 18.6003 2011.36 18.0671 2011.36 17.4111C2011.36 16.6029 2011.68 15.9469 2012.31 15.4434C2012.95 14.9398 2013.77 14.688 2014.77 14.688C2015.78 14.688 2016.59 14.9377 2017.2 15.437C2017.82 15.9321 2018.14 16.5838 2018.16 17.3921H2016.6C2016.56 16.9647 2016.38 16.6304 2016.05 16.3892C2015.72 16.1437 2015.29 16.021 2014.76 16.021C2014.24 16.021 2013.82 16.1374 2013.5 16.3701C2013.18 16.6029 2013.03 16.9097 2013.03 17.2905C2013.03 17.5952 2013.15 17.8428 2013.39 18.0332C2013.64 18.2236 2014.05 18.3866 2014.61 18.522L2015.67 18.7632C2016.59 18.9748 2017.27 19.2837 2017.69 19.6899C2018.1 20.0962 2018.31 20.64 2018.31 21.3213C2018.31 22.1888 2017.99 22.8786 2017.34 23.3906C2016.69 23.8984 2015.81 24.1523 2014.7 24.1523C2013.64 24.1523 2012.79 23.909 2012.15 23.4224C2011.51 22.9315 2011.17 22.265 2011.14 21.4229ZM2023.73 24H2022.15V14.8403H2023.58L2028.12 21.2578H2028.18V14.8403H2029.75V24H2028.34L2023.79 17.5762H2023.73V24ZM2035.41 14.688C2036.74 14.688 2037.8 15.1133 2038.58 15.9639C2039.36 16.8145 2039.75 17.9676 2039.75 19.4233C2039.75 20.8791 2039.36 22.0322 2038.58 22.8828C2037.8 23.7292 2036.74 24.1523 2035.41 24.1523C2034.07 24.1523 2033.01 23.7292 2032.23 22.8828C2031.45 22.0322 2031.06 20.8791 2031.06 19.4233C2031.06 17.9676 2031.45 16.8145 2032.23 15.9639C2033.01 15.1133 2034.07 14.688 2035.41 14.688ZM2037.36 16.9922C2036.87 16.387 2036.22 16.0845 2035.41 16.0845C2034.59 16.0845 2033.94 16.3849 2033.46 16.9858C2032.98 17.5868 2032.74 18.3993 2032.74 19.4233C2032.74 20.4432 2032.98 21.2536 2033.46 21.8545C2033.94 22.4554 2034.59 22.7559 2035.41 22.7559C2036.22 22.7559 2036.87 22.4554 2037.36 21.8545C2037.84 21.2536 2038.08 20.4432 2038.08 19.4233C2038.08 18.4035 2037.84 17.5931 2037.36 16.9922ZM2044.4 24H2042.76V16.2241H2040.02V14.8403H2047.13V16.2241H2044.4V24ZM2056.84 24L2056.06 21.6323H2052.69L2051.91 24H2050.22L2053.47 14.8403H2055.32L2058.57 24H2056.84ZM2054.36 16.459L2053.07 20.3691H2055.68L2054.4 16.459H2054.36ZM2071.61 24H2070.14V17.5H2070.09L2067.44 23.9238H2066.33L2063.68 17.5H2063.64V24H2062.16V14.8403H2064.05L2066.86 21.7529H2066.91L2069.72 14.8403H2071.61V24ZM2079.16 22.6162V24H2073.23V14.8403H2079.16V16.2241H2074.86V18.6997H2078.92V20.001H2074.86V22.6162H2079.16ZM2090.03 24H2088.56V17.5H2088.51L2085.87 23.9238H2084.75L2082.1 17.5H2082.06V24H2080.58V14.8403H2082.48L2085.28 21.7529H2085.33L2088.14 14.8403H2090.03V24ZM2097.58 22.6162V24H2091.65V14.8403H2097.58V16.2241H2093.29V18.6997H2097.34V20.001H2093.29V22.6162H2097.58ZM2105.55 24.1523C2104.24 24.1523 2103.2 23.7292 2102.43 22.8828C2101.67 22.0365 2101.29 20.8812 2101.29 19.417C2101.29 17.9613 2101.67 16.8102 2102.44 15.9639C2103.21 15.1133 2104.25 14.688 2105.55 14.688C2106.62 14.688 2107.51 14.9927 2108.25 15.6021C2108.98 16.2072 2109.4 17.0007 2109.5 17.9824H2107.89C2107.78 17.4069 2107.51 16.9456 2107.08 16.5986C2106.65 16.2516 2106.14 16.0781 2105.55 16.0781C2104.76 16.0781 2104.13 16.3807 2103.66 16.9858C2103.2 17.5868 2102.97 18.3971 2102.97 19.417C2102.97 20.4453 2103.2 21.2599 2103.66 21.8608C2104.13 22.4618 2104.76 22.7622 2105.56 22.7622C2106.16 22.7622 2106.67 22.6077 2107.08 22.2988C2107.49 21.9857 2107.76 21.554 2107.89 21.0039H2109.5C2109.35 21.9857 2108.93 22.7559 2108.23 23.3145C2107.53 23.873 2106.63 24.1523 2105.55 24.1523ZM2114.78 14.688C2116.11 14.688 2117.17 15.1133 2117.95 15.9639C2118.73 16.8145 2119.12 17.9676 2119.12 19.4233C2119.12 20.8791 2118.73 22.0322 2117.95 22.8828C2117.17 23.7292 2116.11 24.1523 2114.78 24.1523C2113.44 24.1523 2112.38 23.7292 2111.6 22.8828C2110.82 22.0322 2110.43 20.8791 2110.43 19.4233C2110.43 17.9676 2110.82 16.8145 2111.6 15.9639C2112.38 15.1133 2113.44 14.688 2114.78 14.688ZM2116.73 16.9922C2116.25 16.387 2115.6 16.0845 2114.78 16.0845C2113.96 16.0845 2113.31 16.3849 2112.83 16.9858C2112.35 17.5868 2112.11 18.3993 2112.11 19.4233C2112.11 20.4432 2112.35 21.2536 2112.83 21.8545C2113.31 22.4554 2113.96 22.7559 2114.78 22.7559C2115.6 22.7559 2116.25 22.4554 2116.73 21.8545C2117.21 21.2536 2117.45 20.4432 2117.45 19.4233C2117.45 18.4035 2117.21 17.5931 2116.73 16.9922ZM2122.07 24H2120.43V14.8403H2122.07V24ZM2125.26 24H2123.68V14.8403H2125.1L2129.65 21.2578H2129.7V14.8403H2131.28V24H2129.87L2125.32 17.5762H2125.26V24Z" fill="#FFF500" fill-opacity="0.6"/>
</svg>
